<?xml version='1.0' encoding='utf-8'?>
<svg xmlns="http://www.w3.org/2000/svg" enable-background="new 0 0 4000 4000" version="1.1" viewBox="0 0 4e3 4e3"> <polygon points="3973.8 26.171 26.17 26.171 26.17 3973.8 3973.8 3973.8" clip-rule="evenodd" fill="#EFDAC4" fill-rule="evenodd"/> <polygon points="1167.6 1158.4 1158 1095 1099.2 1086 1157.8 1075.6 1166.3 1012.1 1175.8 1075.4 1234.7 1084.5 1176 1094.8" clip-rule="evenodd" fill="#1FC0DA" fill-rule="evenodd"/> <path d="m1482.6 1170.4c16.184-0.307 29.39 13.584 29.503 31.008 0.1 17.442-12.929 31.838-29.118 32.142-16.152 0.308-29.358-13.584-29.471-31.006-0.108-17.443 12.93-31.839 29.086-32.144z" clip-rule="evenodd" fill="#1FC0DA" fill-rule="evenodd"/> <path d="m1484.6 1003.1c5.735-0.108 10.409 4.819 10.427 10.978 0.027 6.192-4.592 11.268-10.3 11.386-5.685 0.111-10.381-4.819-10.413-10.957-0.018-6.187 4.574-11.292 10.286-11.407z" clip-rule="evenodd" fill="#1FC0DA" fill-rule="evenodd"/> <path d="m3973.8 2559.5c-208.7-14.815-444.49 8.577-565.76-15.83-182.21-36.693-375.36-81.863-476.16 30.083-100.78 111.95-117.28 126.14-230.67 148.51-113.42 22.412-181.29 105.95-176.84-5.44 4.451-111.42-72.924-159.53-145.99-161.14-73.087-1.568-13.038-135.83-113.24-135.56-100.2 0.245-158.1 53.729-260.58 84.646-102.49 30.909-179.52-21.07-174.11-93.857 5.413-72.824 111.04-145.86-90.767-230.23-201.78-84.375-425.32-135.7-480.62-324.76-55.275-189.06 1603.3-316.16 1744.7-559.94 141.44-243.78 437.47-183.21 708.86-309.47 100.99-46.957 180.2-88.058 261.18-119.58v1692.6z" clip-rule="evenodd" fill="#58B8CF" fill-rule="evenodd"/> <path d="m2937.7 2567.6c-1.958 1.977-3.881 4.007-5.775 6.093-10.979 12.222-20.98 23.265-30.21 33.284-10.481 9.882-22.341 21.605-34.463 36.013-51.218 50.556-82.054 62.65-165.99 79.216-113.42 22.412-181.29 105.95-176.84-5.44 4.451-111.42-72.924-159.53-145.99-161.14-67.257-1.441-21.806-115.18-92.082-133.16 27.373-37.572 94.131-88.264 134.38-58.725 46.739 34.281 34.971-55.978 87.349-138.4 52.352-82.416 203.71-86.568 120.87-132.83-82.879-46.223-106.11 100.02-130.47 55.053-24.398-44.971-87.884-62.017-146.26-23.221-58.39 38.807-151.92-29.783-261.36-50.256-109.46-20.464-106.19-229.84-150.7-294.79 41.603-61.638 883.2-187.08 1083-138.31 199.8 48.79 378.38 92.877 418.81 129.78 40.393 36.934-21.705 84.706-63.403 106.27-41.716 21.542-79.197 111.23-129.7 85.893-50.501-25.312-77.656 49.731-157.85 49.922-80.141 0.208-162.24 68.081-81.084 95.698 81.165 27.617 148.97 69.624 162.78 132.32 13.818 62.678-52.695 45.406-67.456-5.014-14.761-50.411-116.67-88.827-162.56-52.152-45.887 36.648-55.543 125.33-90.885 144.26-35.306 18.949-91.139-59.196-161.12-30.474-69.932 28.696-42.949 163.27-13.084 134.65 29.894-28.605 98.12 7.308 125.56 52.505 27.463 45.197 66.993 11.143 119.44 52.007 15.24 11.933 18.957 21.126 15.059 30.937z" clip-rule="evenodd" fill="#4DB0CB" fill-rule="evenodd"/> <path d="m2918.9 2087.7c16.782-52.688 96.144-49.369 167.05-69.796 70.848-20.394 107.6-99.854 169.54-69.578 61.971 30.306 99.715 40.805 104.28-20.493 4.561-61.302 123.46-70.459 163.16-52.088 39.722 18.371 189.11 47.455 201.16-10.733 12.05-58.186 118.79-111.86 161.7-67.579 42.985 44.275 13.047 101.16-37.264 87.113-50.375-14.024-60.403 52.039-80.559 81.369-20.155 29.311-8.703-21.2-85.934-19.247-77.222 1.975-46.268 35.079-97.286-4.66-50.955-39.762-110.48-33.912-132.44 54.346-22.005 88.28-60.185 152.25-116.94 155.72-56.767 3.473-63.539-43.258-124.87-47.818-61.3-4.561-186.1-18.985-242.43 12.803-56.277 31.752-66.359 97.784-66.359 97.784s7.789-104.73 17.183-127.14z" clip-rule="evenodd" fill="#80C7C1" fill-rule="evenodd"/> <path d="m2867.3 2327.9c13.772-71.047-0.336-137.85-87.168-167.62-86.85-29.812-96.724 45.796-151.5 69.314-54.745 23.483-139.9 27.735-141.48 106.08-1.551 78.318-71.491 77.393-58.372 129.24 13.093 51.88-164.66-10.127-188.2 106.88-23.546 117.01 94.049 132.12 163.57 109.71 69.551-22.386 188.37 33.103 149.5 31.806-65.316 49.06-199.71-9.103-311.49 17.245-111.77 26.384-170.4 89.443-191.11 57.093-20.727-32.377-67.835-20.464-115.88-22.113-48.022-1.632-82.435-31.172-112.98-35.388-30.501-4.18-201.24-169.08-229.56-176.96-28.306-7.888-198.38-26.339-252.6-22.648-54.241 3.653-257.64 44.391-257.58 69.469 0.086 25.042 183.95 65.697 172.93 84.148-11.002 18.433 106.07 50.257 134.47 31.171 28.388-19.059 162.71-37.98 169.02 6.8 6.306 44.799-79.851 11.388-113.19 45.524-33.375 34.127-148.47 27.481-132.29 69.16 16.147 41.644 87.924-16.582 189.31-7.117 101.41 9.457 435.9 70.956 489.77 98.075 53.84 27.146 113.78 23.882 113.41 54.681-0.354 30.818-30.936 53.566-12.222 60.729 18.75 7.208 64.609-39.495 119.4-50.828 54.79-11.343 22.286-40.737-0.535-44.354-22.875-3.617-20.935-3.473 5.902-53.503 26.829-50.003 128.8-48.198 134.83 0.39 5.993 48.644 58.952 62.198 106.5 44.536 47.536-17.662 125.42-54.237 95.617-68.036-29.848-13.764-87.729-12.304-62.751-37.41 25.006-25.114 73.767-33.039 99.317-65.814 25.55-32.795 5.612-49.668 27.825-63.422 22.223-13.772 48.271-27.218 102.82-86.769 54.455-59.514 62.515-89.77 129.3-80.938 66.758 8.822 97.285 13.029 123.54-29.34 26.266-42.359 19.892-60.166 19.892-60.166s-20.109 37.037-83.178 30.428c-63.086-6.637-154.33-75.063-158.03-25.26-3.709 49.84 18.351 90.014-33.819 91.909-52.143 1.895-1.704 22.983-13.437 51.027-11.696 28.016-63.231 47.273-101.66-5.648-38.434-52.95-82.661-54.31-50.511-98.147 32.178-43.855 74.021-36.91 43.874-71.908-30.119-34.988-66.595-114.78 22.214-142.85 88.754-28.062 111.69-103.42 184.48-45.996 72.818 57.446 62.038 96.823 62.038 96.823z" clip-rule="evenodd" fill="#80C7C1" fill-rule="evenodd"/> <path d="m3973.8 2890c-56.631 5.631-115.04-8.205-126.73 6.764-17.055 21.879-20.183 64.002-24.725 21.308-4.533-42.723 18.215-141.23-117.89-124.39-136.09 16.847-141.14 135.93-248.67 131.78-107.6-4.144-189.5 9.012-281.77 110.04-92.299 100.99-38.389 101.17-154.63 161.89-116.26 60.71-299.78 93.287-263.7 22.775 0 0 99.226-38.869 118.83-95.191 19.584-56.35 32.104-120.94-32.641-79.516-64.745 41.436-165.37 99.453-232.92 75.173-67.556-24.326-103.6-57.818-53.783-54.11 49.83 3.708 195.31-35.551 243.14-109.04 47.891-73.504 10.998-95.527 58.544-165.19 47.591-69.678 135.3-109.38 197.06-162.58 61.763-53.221 195.17-189.71 209.82-231.01 14.66-41.299 69.024-98.891 142.5-51.046 73.522 47.863 282.61-17.508 296.27-97.403 13.637-79.905 168.53-141.6 254.04-100.55 6.211 2.974 11.933 6.083 17.236 9.284v731.01h3e-3z" clip-rule="evenodd" fill="#5975A1" fill-rule="evenodd"/> <path d="m3973.8 2890c-56.631 5.631-115.04-8.205-126.73 6.764-17.055 21.879-20.183 64.002-24.725 21.308-4.533-42.723 18.215-141.23-117.89-124.39-136.09 16.847-141.14 135.93-248.67 131.78-107.6-4.144-189.5 9.012-281.77 110.04-92.299 100.99-38.389 101.17-154.63 161.89-116.26 60.71-299.78 93.287-263.7 22.775 0 0 99.226-38.869 118.83-95.191 19.584-56.35 32.104-120.94-32.641-79.516-64.745 41.436-165.37 99.453-232.92 75.173-67.556-24.326-103.6-57.818-53.783-54.11 49.83 3.708 195.31-35.551 243.14-109.04 47.891-73.504 10.998-95.527 58.544-165.19 47.591-69.678 135.3-109.38 197.06-162.58 5.495-4.76 11.624-10.182 18.125-16.139 43.71 99.145 119.14 236.14 191.83 204.68 111.5-48.208 76.105-55.979 193.6-47.238 117.51 8.74 169.96-74.691 274.99-36.076 105.01 38.651 85.046-106.7 171.08-90.023 79.279 15.387 15.895 133.37 70.24 88.609v156.47h2e-3z" clip-rule="evenodd" fill="#5975A1" fill-rule="evenodd"/> <path d="m3973.8 1852.3c-7.199 0.045-14.562-0.184-22.104-0.744-145.64-10.834-52.777-119.54-145.05-87.85-92.244 31.647-0.398 74.452-84.401 99.034-84.076 24.582-256.5 63.12-286.82 22.333-30.355-40.813-9.466-10.979-68.499 23.156-59.043 34.139-50.756-8.917-107.7-2.876-56.957 6.041-83.332-19.061 43.466-66.126 126.82-47.072 147.52-84.08 53.04-91.109-94.566-7.033-253.2-49.645-315.48 27.917-62.324 77.563-64.745 41.412-149.15 71.105-84.438 29.664-5.141-0.381-123.32 34.462-118.21 34.907-208.24 2.487-252.61-57.317-44.354-59.797-162.28-63.428-153.31-11.406 8.985 52.059 25.323 143.16-104.01 120.71-129.34-22.456-139 38.465-68.055 51.462 70.956 12.977 192.26 39.977 158.2 83.661-34.082 43.72 16.52 88.591 90.015 101.76 73.521 13.183 124.4 88.89 38.751 100.5-85.617 11.605-70.521 84.674-150.74 58.145-80.223-26.52-106.99-46.512-87.611 3.763 19.375 50.248-158.04 52.442-219.32-21.451-61.279-73.921-113.2-170.26-209.45-154.31-96.211 15.958-101.49-51.218-128.11-4.388-26.602 46.82-61.391 31.397-88.256-21.987-26.869-53.366-31.43 7.942-75.498-21.008-44.092-28.977-26.865-53.385-62.134-97.122-35.274-43.727-31.806 13.056-72.669 10.019-40.909-3.046-3.776-18.258-77.484-28.905-73.712-10.597-46.852 42.768-90.658 44.644-43.81 1.877-45.188-82.974-99.906-38.24-54.717 44.715-35.292 25.602-98.025 5.546-62.728-20.087-89.466 62.679-150.03 47.891-60.574-14.751-75.308-23.546-114.65-47.029-39.358-23.48-66.93 36.113-26.991 51.943 39.93 15.804 76.138 116.11 114.71 149.81 38.606 33.683 34.263 23.074 67.914 53.855 33.688 30.755 35.129-23.074 5.803-43.257-29.309-20.155-85.245-62.841-87.317-104.09-2.049-41.263 32.087 17.798 80.721-14.543 48.661-32.358 105.8-40.937 154.43-3.935 48.606 37.001 238.05-23.374 179.2 8.188-58.857 31.579-182.17 66.096-113.39 73.767 68.798 7.679 127.76-59.858 199.19-87.938 71.446-28.07 64.464-2.893 102.76-0.045 38.316 2.847 24.127 55.715 74.447 69.731 50.32 14.045 65.652 15.187 81.251 47.156 15.617 31.996 62.175 27.763 33.207 71.835-28.978 44.092 33.968-7.733 67.533 58.961 33.561 66.723 67.152 64.084 84.384 39.676 17.231-24.416 77.579-7.09 102.47 38.452 24.865 45.515 233.14 215.12 223.41 242.65-9.756 27.545-406.54-94.438-353.2-51.97 53.366 42.522 139.46 59.205 31.411 61.417-108.06 2.24-120.93-32.104-209.78-46.412-88.827-14.325-85.168 39.894-197.76 34.1-112.58-5.848-361.52-78.281-291.7 19.403 69.795 97.648 207.34 113.02 157.74 227.49-49.622 114.46 173.88 79.715 212.65 180.21 38.751 100.5 277.75 133.7 318.07 75.055 40.333-58.671 71.445-62.77 88.246-29.403 16.765 33.356 94.602 40.419 103.18 62.896 8.604 22.494-111.08 8.459-215.3 10.979-104.21 2.503-205.19-3.708-230.71 11.089-25.514 14.797-141.06-20.79-215.41 12.204-74.397 32.984-82.53 4.134-150.92-8.65-68.403-12.802-230.66-76.269-247.63-20.998-16.941 55.243-67.461 43.792-86.192 19.285-18.755-24.517-132.75 23.51-147.23-23.81-14.448-47.31-25.033-112.29-93.347-91.7-68.336 20.608-161.27 95.898-165.98 21.043-4.692-74.854-86.383-47.536-133.62 0.336-36.145 36.647-160.88 7.961-242.34-27.808v-1934c6.401 4.167 12.167 9.336 17.123 15.928 32.735 43.52 144.57 59.562 124.22 22.075-20.332-37.484-29.476-86.973 17.631-98.886 47.133-11.884 86.573 44.996 109.27 15.855 22.717-29.147 85.825-14.169 117.54 8.743 31.666 22.909 40.406-25.247 97.363-31.285 56.948-6.041 129.24 58.417 119.94 114.22-9.316 55.84 47.546 85.737 90.975 88.967 43.448 3.232 180.55-9.681 198.52 25.044 17.952 34.724 98.007 63.816 110.87 28.801 12.879-35.014-11.46-18.827-22.512-42.761-11.053-23.952-19.263-86.21-68.939-74.488-49.676 11.696 6.56-53.459 72.592-43.406 66.028 10.048 52.868 83.549 81.723 75.439 28.851-8.131 157.07 29.659 176.52 113.3 19.448 83.645-40.524 130.58-15.758 142.69 24.798 12.093 65.394-15.694 103.52-10.302 38.103 5.417 54.165-106.42 109.12-50.964 54.963 55.479 58.902 71.189 73.667 79.979 14.766 8.797 117.52 8.716 137.89-23.156 20.346-31.855-35.206-10.311-26.099-63.582 9.094-53.27 87.439-70.553 94.828-100.81 7.39-30.308 3.541-81.931 77.706-43.053 74.161 38.91 201.59 86.94 336.93-5.739 135.34-92.687 639.35-306.97 962.59-508.98 210.28-131.35 571.55-160.22 850.42-140.7v1199.9h-6e-3zm-3947.7 1423.3c42.604 27.019 92.562 46.774 136.58 58.743 78.055 21.197 159.4 32.386 204.83 43.466 45.42 11.098 345.69 118.21 314.1 128.69-31.616 10.509-345.85-12.893-443.6-45.851-79.905-26.928-133.25-41.598-211.91-45.034v-140.02zm898.17-658.12s-116.9-85.726-153.27-11.397c-36.362 74.356-37.963 147.45-82.227 121.05-44.259-26.402-25.835 36.611-75.67 32.903-49.813-3.708-68.517-62.878-90.232-29.829-21.733 33.048 38.28 106.88 38.28 106.88s108.01-1.604 113.13-18.56c5.091-16.955 69.41-52.642 85.993-16.71 16.606 35.904 32.994 48.67 83.649 40.891 50.701-7.788 126.92-100.38 81.288-82.57-45.628 17.798-95.672 42.967-63.345-2.792 32.288-45.743 82.033-119.15 62.403-139.86z" clip-rule="evenodd" fill="#5975A1" fill-rule="evenodd"/> <path d="m1460.6 1956.9c1.736 11.483 17.014 23.206 43.774 28.107 25.201 4.615 56.78 11.004 85.494 19.276 0.544 3.747-1.011 7.772-5.127 12.196-50.271 54.038-120.1 60.421-59.346 72.643 60.738 12.204 14.189 16.475 9.338 81.609-4.841 65.145 71.967 16.919 11.171 108.73-37.817 57.129-70.449 84.801-114.67 83.604-37.867-8.105-75.357-24.906-97.571-51.697-61.286-73.912-113.2-170.26-209.45-154.3-96.211 15.958-101.49-51.218-128.11-4.388-26.602 46.82-61.391 31.397-88.255-21.987-26.869-53.366-31.435 7.942-75.499-21.008-44.091-28.977-26.865-53.385-62.134-97.113-35.278-43.735-31.806 13.047-72.67 10.01-40.909-3.046-3.771-18.258-77.483-28.905-73.713-10.597-46.853 42.759-90.658 44.644-43.811 1.877-45.188-82.974-99.906-38.24-54.718 44.715-35.292 25.602-98.024 5.546-62.729-20.087-89.466 62.679-150.03 47.891-60.575-14.751-75.309-23.546-114.65-47.029-17.499-10.436-32.658-4.454-40.601 6.8v-719.18c2.906 0.433 5.78 0.757 8.595 0.965 43.448 3.232 180.55-9.681 198.52 25.047 17.952 34.721 98.006 63.814 110.87 28.798 12.879-35.016-11.46-18.83-22.517-42.761-11.047-23.952-19.257-86.208-68.934-74.49-49.677 11.698 6.56-53.457 72.593-43.402 66.028 10.044 52.868 83.547 81.723 75.439 28.85-8.133 157.07 29.66 176.52 113.3 19.443 83.647-40.528 130.58-15.758 142.69 24.797 12.095 65.394-15.692 103.52-10.302 38.103 5.419 54.165-106.41 109.12-50.962 54.962 55.479 58.901 71.189 73.667 79.979 14.765 8.797 117.52 8.716 137.89-23.156 20.35-31.854-35.202-10.311-26.099-63.582 8.02-46.957 69.845-65.958 89.466-90.55l87.603 67.622s38.996 149.32-154.18 208.17c-193.19 58.853-283.07 179.31-184 194.38 99.049 15.06 293.52-113 399.92 10.495 54.67 63.427 166.64 93.513 255.89 115.11zm-1434.4 91.857c3.142 3.926 7.607 7.289 13.609 9.674 39.93 15.804 76.134 116.11 114.71 149.81 38.606 33.674 34.258 23.084 67.914 53.855 33.683 30.755 35.129-23.074 5.803-43.257-29.308-20.155-85.245-62.841-87.317-104.09-2.045-41.263 32.087 17.808 80.721-14.543 48.661-32.358 105.8-40.937 154.43-3.935 48.606 37.001 238.05-23.374 179.2 8.188-58.856 31.579-182.18 66.096-113.38 73.767 68.794 7.679 127.76-59.858 199.19-87.938 71.446-28.07 64.464-2.893 102.76-0.045 38.315 2.847 24.126 55.715 74.446 69.731 24.045 6.728 40.103 10.481 52.007 16.066-9.597-1.224-20.536-2.321-33.089-3.255-122.64-9.121-80.458-110.02-213.77-27.463-133.28 82.562-91.012 135.79-101.52 173.54-10.504 37.771 25.432 21.143 100.78-7.943 75.358-29.059 254.34-0.335 201.11 41.934-53.258 42.287-21.605 83.169 25.505 71.256 47.11-11.887 53.802-49.939 88.718-1.088 23.85 33.393 79.084-15.568 117.5-29.721 5.866 0.462 11.311-0.871 16.193-3.6 9.992-0.254 17.657 4.542 21.579 17.889 18.423 63.014-294.65 24.308-232.08 63.657 62.578 39.322 80.607 56.077-35.51 62.887-116.08 6.728-65.425-1.024-191.04-21.96-114.02-18.967-180.48 48.189-184.09 113.2-58.1-3.917-93.083 5.113-61.083 49.876 69.8 97.648 207.34 113.02 157.75 227.49-49.626 114.46 188.87 64.891 227.64 165.39 38.755 100.5 245.28 105.71 285.59 47.075 40.338-58.671 88.931-19.966 105.74 13.4 16.764 33.356 94.602 40.419 103.18 62.887 8.604 22.503-111.08 8.468-215.3 10.988-104.21 2.503-170.38 39.604-195.9 54.4-25.519 14.788-90.014 0.444-164.36 33.438-74.396 32.994-168.4-60.402-236.79-73.195-68.399-12.802-230.66-76.269-247.62-20.998-16.941 55.243-67.461 43.792-86.193 19.285-11.501-15.033-58.82-2.793-97.041-1.986v-422.59c19.176-7.045 40.211-7.443 48.707 10.971 16.605 35.904 32.994 48.67 83.649 40.882 50.701-7.779 126.92-100.37 81.287-82.562-45.628 17.798-95.672 42.967-63.344-2.792 32.287-45.742 82.031-119.15 62.402-139.86 0 0-116.9-85.726-153.27-11.397-28.791 58.871-35.795 116.95-59.432 125.48v-682.79h2e-3z" clip-rule="evenodd" fill="#486394" fill-rule="evenodd"/> <path d="m266.21 2003.6c-57.207-11.129-84.203 64.1-142.18 49.91-51.172-12.467-69.632-20.681-97.857-37.092v-116.71c17.44-6.165 40.859-14.801 70.444-21.338 78.373-17.281 47.179 65.176 109.14 35.093 61.962-30.063 45.633-17.803 142.63-0.952 96.996 16.854 110.23-57.297 201.49-40.875 91.248 16.429 157.77-74.982 184.5-45.993 26.76 28.966-168.98 70.265-281.69 135.1-81.143 46.653-138.98 35.145-186.48 42.856zm-240.04 100.45c6.601 10.072 13.156 20.98 19.707 31.933-4.878 14.008-7.543 27.563 3.677 37.555 30.718 27.317 65.362 27.971-20.804 46.62-0.875 0.191-1.723 0.363-2.58 0.535v-116.64zm0-808.6c57.578-0.632 136.4-1.076 149.73 24.673 17.952 34.724 98.011 63.816 110.87 28.801 12.884-35.014-11.46-18.827-22.513-42.761-11.052-23.952-19.262-86.21-68.943-74.488-49.672 11.696 6.564-53.459 72.598-43.406 66.028 10.048 52.868 83.549 81.723 75.439 28.854-8.131 157.08 29.659 176.52 113.3 19.443 83.645-40.523 130.58-15.758 142.69 9.497 4.645 21.329 3.4 34.439 0.438-23.174 12.159-57.011 9.568-81.029 31.987-49.695 46.36-133.48 59.437-172.17 87.362-38.688 27.959-25.777 61.671 45.052 41.906 70.833-19.781 84.91 23.678 17.372 51.404-67.565 27.726-170.07 46.127-188.35 45.717-18.279-0.393-40.696 28.775 12.698 36.584 53.357 7.824 4.651 40.816-80.848 24.815-32.318-6.047-55.185-5.882-71.391-1.278v-543.19h-1e-3z" clip-rule="evenodd" fill="#334C8B" fill-rule="evenodd"/> <path d="m3973.8 1670.6c-77.684 8.112-120.28-6.981-139.55-53.908-26.058-63.578-144.87-72.418-221.19-81.958-76.369-9.515-200.4 0.512-310.16-26.908-109.66-27.431-197.63-87.922-272.84-112.76-75.235-24.879-11.47-104.89-144.73-126.38-133.27-21.468-131.3 55.763-237.29-21.488-105.98-77.269-123.57-151.77 1.986-389.02 8.368-15.819 19.602-31.808 33.266-47.84 9.456-5.744 18.813-11.518 27.952-17.25 323.28-201.94 1003.6-161.69 1192.4-75.693 24.19 11.021 47.537 20.792 70.149 29.245v923.96z" clip-rule="evenodd" fill="#5975A1" fill-rule="evenodd"/> <path d="m2932.3 1281.6c-12.14-5.3-27.417-9.761-46.975-12.904-133.27-21.468-131.3 55.763-237.29-21.488-80.865-58.906-110.22-116.24-63.92-245.46 174.68-41.616 337.76-77.316 337.76-77.316 52.46 40.895-21.805 127.82-2.394 156.97 19.376 29.206 79.243-29.515 92.979-6.884 13.736 22.597 117.23 19.475 141.38-14.951 24.136-34.406 58.136-45.76 49.468-12.453-8.631 33.259-71.101 54.795-129.78 55.801-58.626 1.079-75.616-8.724-85.509-0.177-9.892 8.519-44.391 47.546-22.93 39.15 21.416-8.455 54.772-21.391 54.673 0.204-0.073 21.569 54.164 28.648 93.351 9.243 39.204-19.423 83.668-47.716 78.626-21.098-5.05 26.572-63.385 64.598-129.71 55.064-66.35-9.565-114.18-19.312-113.52 13.104 0.708 32.425 127.1 52.61 174.23 40.726 47.138-11.907 138.42 4.114 161.45 5.825 22.966 1.709 36.965 41.306-20.092 41.662-57.048 0.383-199.72-8.693-284.6-7.287-13.128 0.219-29.14 1.004-47.183 2.266z" clip-rule="evenodd" fill="#486394" fill-rule="evenodd"/> <path d="m3973.8 1483.9c-37.237-0.403-96.152 34.447-103.47 60.711-10.517 37.745-136.04 33.545-165.18 10.823-16.238-57.714 55.334-18.995 70.938-56.363 15.668-37.363-84.066-8.837-116.27 9.318-32.159 18.168-61.164-40.521-26.075-63.578 35.106-23.083 5.322-71.547-48.145-78.103-53.457-6.512 9.438-91.748 13.428-145.4 3.989-53.643 90.54-8.684 142.93-22.755 52.451-14.101 32.73-59.233 79.334-99.464 46.675-40.19 31.524 25.511 122.76 6.607 11.642-2.41 21.416-3.953 29.748-4.737v382.94h-1e-3z" clip-rule="evenodd" fill="#334C8B" fill-rule="evenodd"/> <path d="m3248.4 1619c44.753-14.647 108.04-2.239 191.75 11.708 83.768 13.929 167.6-8.087 145.08 18.492-22.557 26.566-311.8 12.776-336.84-30.2z" clip-rule="evenodd" fill="#334C8B" fill-rule="evenodd"/> <path d="m2303 1584.7s186.1 18.985 279.92-33.125c93.768-52.082 231.25-70.108 257.83-47.596 26.565 22.528-102.38-5.032-107.8 33.093-5.395 38.127-178.17 81.775-239.12 72.125-60.919-9.666-190.83-24.497-190.83-24.497z" clip-rule="evenodd" fill="#334C8B" fill-rule="evenodd"/> <path d="m2166.8 1482.1c-57.475 47.095-106.04 112.84-58.354 162.61 47.663 49.792 95.427 132.96 169.61 102.54 74.211-30.45 107.31-61.377 105.03-30.716-2.276 30.642-187.44 68.25-256.9 34.839-69.405-33.444-34.616-17.995-114.48-49.631-79.844-31.634-68.751-77.031-105.75-97.787-36.97-20.717-52.134-24.403-122.99-3.98-70.879 20.397-170.5 12.985-169.08-40.855 1.451-53.833 255.55-189.05 366.52-196.21 110.98-7.165 353.12 18.546 410.96-33.655 57.8-52.199 40.99-102.25 112.34-163.73 71.347-61.504 78.083-48.14 84.212-27.132 6.139 20.992 270.58 161.41 366.44 150.55 95.816-10.848 204.36-54.135 228.47 1.578 24.108 55.74 168.31 51.05 201.85 117.77 33.62 66.725 123.97 60.584 95.373 99.562-28.587 38.989-196.13 47.052-301.66 49.504-105.49 2.41-90.078 36.969-197.37 28.991-107.3-7.983-1.215-18.088 82.425-37.541 83.649-19.466 146.18-66.205 72.117-71.715-74.094-5.511-131.52-27.758-172.86-59.079-41.335-31.334-210.18 28.03-202.66-38.218 7.479-66.218-51.064-73.159-143.53-38.923-92.462 34.229-157.75 83.318-238.36 61.903-80.595-21.407-181.16-16.06-217.63 24.899-36.431 40.953 6.256 54.433 6.256 54.433z" clip-rule="evenodd" fill="#334C8B" fill-rule="evenodd"/> <path d="m1955.6 1870.4c-1.527 41.535-22.313 78.341-109.85 63.136-129.33-22.456-139 38.465-68.05 51.462 70.956 12.977 192.26 39.977 158.2 83.661-2.431 3.073-4.371 6.147-5.948 9.221-42.405-5.022-103.65-21.406-126.61-8.958-37.481 20.318 86.315 14.09 47.5 52.343-38.814 38.198-63.611 26.075-23.201 70.194 40.392 44.091 44.068 28.949-12.803 68.381-45.723 31.761-21.279 35.433 6.986 59.659 1.002 3.753 2.484 8.159 4.483 13.318 19.376 50.248-158.05 52.442-219.32-21.451-61.282-73.921-113.2-170.26-209.45-154.31-96.216 15.958-101.5-51.218-128.12-4.388-26.602 46.82-61.391 31.397-88.256-21.987-26.864-53.366-31.425 7.942-75.494-21.008-20.359-13.4-27.64-25.785-33.057-39.558 19.82-31.706 69.383-46.304 107.11-9.058 47.872 47.237 144.19 64.673 150.8 44.608 6.627-20.064-67.035-100.02 17.009-193.96 84.039-93.917 264.9-211.49 384.67-164.05 2e-3 2e-3 206.56 59.519 223.4 122.74z" clip-rule="evenodd" fill="#334C8B" fill-rule="evenodd"/> <path d="m1722.9 1717.5c36.316-5.019 74.22 20.939 110.79 30.081 36.57 9.132-8.128-28.884-29.081-40.721-20.958-11.837-78.858-27.706-81.709 10.64z" clip-rule="evenodd" fill="#334C8B" fill-rule="evenodd"/> <path d="m3973.8 839.87c-4.353-1.707-8.813-3.359-13.4-4.946-102.18-35.367-108.85 13.478-137.7-13.342-28.832-26.81-163.26-43.001-203.59 43.402-40.319 86.385 2.965 249.93-56.739 223.91-59.668-26.067-41.263-107.86-124.76-104.85-83.45 3.021-92.707-37.754-120.89-73.724-28.134-36.022-108.42-75.896-151.68-32.858-43.285 43.001-61.898 44.708-78.69 21.905-16.81-22.825-44.844-18.774-78.128 55.779-33.302 74.63-67.12 32-84.139 12.281-17.009-19.804-71.646 10.035-108.81 53.57-37.137 43.461-102.87-26.189-128.39 27.418-25.586 53.58-16.266 11.136-64.174 75.376-47.963 64.233 45.687 89.684-1.007 75.419-46.748-14.262-73.286-30.097-83.667-77.092-10.391-47.022-62.823-46.294-89.253-2.04-26.411 44.287-90.313 33.377-98.355 78.998-7.997 45.635-61.608 103.31-89.38 124.36-27.771 21.046-70.304 33.293-135.13 34.632-64.846 1.342-161.7 60.402-125.6 72.344 36.073 11.94 5.446 9.66-6.039 39.617-11.487 29.975-54.137 43.783-77.162 22.025-23.029-21.758-140.6-78.289-109.17-45.114 31.462 33.171 112.11 88.462 70.276 91.535-41.848 3.049-96.796-45.724-160.22-1.129-63.417 44.602-25.899 58.179-32.214 80.853-6.311 22.642-26.121 122.87-108.88 116.72-82.765-6.154-44.594-105.05-104.87-81.793-60.308 23.251-30.777 40.866-64.065 115.45-33.325 74.607-85.187-15.563-56.432-112.06 28.782-96.499 67.941-84.356 86.927-132.26 18.981-47.908 111.05-0.995 151.93-53.437 40.896-52.435-42.69-6.24-110.23-51.356-67.547-45.084-94.765-93.362-37.989-110.71 56.767-17.354 58.82-44.939 103.44-23.116 44.604 21.801 108.87-13.475 126.4-83.069 17.494-69.571-3.423-37.246-27.128-91.422-23.709-54.149-7.466-65.287-17.444-96.867-9.973-31.524 45.519 9.55 77.293-3.477 31.806-13.052 18.75-44.835-34.281-36.507-53.013 8.459-132.86 45.649-157.64-14.765-24.779-60.416 37.051-83.557 2.353-93.863-34.666-10.243-47.994-59.047-20.105-81.618 27.857-22.594 43.833-9.058 30.024-51.714-13.776-42.645-49.246-42.185-22.499-91.052 26.783-48.91 60.874-30.929 70.879-41.002 9.974-10.023 3.124-62.943 74.025-104.64 70.938-41.809 148-10.571 147.95 21.019-0.045 31.566 10.627 23.131 45.588 29.542 34.952 6.456 45.369 42.695 33.696 64.963-11.683 22.243 29.906 33.037 62.139 24.616 32.219-8.341 86.358 20.28 67.034 72.79-19.344 52.507 21.428 43.214 10.203 70.145-11.264 26.928 34.707 71.942 42.849 24.761 8.133-47.151 39.876-80.274 70.004-50.268 30.138 29.958 79.524 70.627 93.65 25.43 14.171-45.175-59.568-27.524-42.641-89.486 16.928-61.917 68.979-36.441 114.32-65.435 45.315-29.022 90.485-56.465 155.58-19.285 65.035 37.206 69.297 83.77 19.313 92.372-49.939 8.611-82 66.384-44.636 61.445 37.354-4.941 58.39-80.463 106.27-61.488 47.937 19.011 10.382-56.268 46.032-79.789 35.641-23.513 90.775-39.504 56.413-74.399-34.408-34.897-61.155 13.988-107.6-24.917s-68.01-142.26-4.198-171.41c63.856-29.145 42.75-118.6 89.634-127.42 46.911-8.89 71.191-3.971 73.93-40.774 2.738-36.805 60.783-70.981 125.73-73.931 64.945-2.815 59.242 73.821 75.427 42.618 16.192-31.067 57.736-71.207 152.18-56.47 94.438 14.738 77.646 75.19 100.99 92.283 23.393 17.166 40.683-7.729 105.02 18.639 64.31 26.364 77.61 116.66 22.549 111.07-55.054-5.651-39.485 54.097-0.988 33.823 38.506-20.208 81.4 24.525 73.403 70.206-8.032 45.678-55.252 17.469-67.691 39.615-12.458 22.211 24.688 61.982 52.922 34.787 28.198-27.127 32.097-17.637 79.089-28.009 47.074-10.368 28.397-70.347 133.82-57.837 105.41 12.442 90.377 69.914 79.207 95.265-11.089 25.354-0.689 92.433 18.106 67.646 18.795-24.784 42.151-27.715 73.177-30.006 0 0 9.203-23.891 29.023-41.566l3.382 3.681c53.021-43.999 144.89-33.152 235.43-4.683v344.7h2e-3zm-861.65-201.55c-35.143 6.41-77.158 53.366-70.113 79.587 7.027 26.162 19.467-20.386 36.412-6.317 16.928 14.142 27.808-28.742 48.407-46.483 20.591-17.695 13.192-38.828-14.706-26.787zm118.28-122.16c-28.343 18.392-58.97 67.531-37.373 70.355 21.624 2.895 62.025 12.327 48.217-9.2-13.79-21.592 9.646-26.275 12.558-47.913 2.882-21.57-13.692-22.803-23.402-13.242z" clip-rule="evenodd" fill="#252F6B" fill-rule="evenodd"/> <path d="m2164.1 784.98c23.746 16.291 47.446 22.703 56.54-6.349 14.171-45.175-59.568-27.524-42.641-89.486 16.928-61.917 68.979-36.441 114.32-65.435 45.315-29.022 90.485-56.465 155.58-19.285 65.035 37.206 69.297 83.77 19.313 92.372-49.939 8.611-82 66.384-44.636 61.445 37.354-4.941 58.39-80.463 106.27-61.488 47.937 19.011 10.382-56.268 46.032-79.789 35.641-23.513 90.775-39.504 56.413-74.399-34.408-34.897-61.155 13.988-107.6-24.917s-68.01-142.26-4.198-171.41c63.856-29.145 42.75-118.6 89.634-127.42 46.911-8.89 71.191-3.971 73.93-40.774 2.738-36.805 60.783-70.981 125.73-73.931 64.945-2.815 59.242 73.821 75.427 42.618 14.37-27.615 48.761-62.336 122.48-59.423 23.192 51.925 27.064 108.36 16.946 138.94-19.865 60.155-54.817 219.38-54.817 219.38s-133.3-21.415-155.45 69.419c-22.168 90.834 114.65 116.4 65.807 151.3-48.843 34.868-152.46 81.111-124.1 114.08 28.379 32.917-6.11 134.38-70.711 121.86-64.563-12.501-45.261 39.025-101.79 73.343-56.494 34.354-153.82-3.744-192.02 43.554-38.18 47.217-260.46 30.684-294.25 70.58-33.801 39.853-58.606 11.034-92.541 0.837-33.9-10.241-16.71-86.048 31.277-109.42 47.963-23.426 61.173-45.563 61.608-103.31 0.463-57.768 34.681-51.367 64.328-87.69 1.298-1.615 2.314-3.324 3.12-5.185z" clip-rule="evenodd" fill="#214182" fill-rule="evenodd"/> <path d="m1529.7 749.8c-0.685-4.497-2.185-10.154-4.556-17.469-13.776-42.645-49.246-42.185-22.499-91.052 26.783-48.91 60.874-30.929 70.879-41.002 7.82-7.856 5.291-41.992 37.849-76.462-21.701 53.172-16.946 114.02 23.256 142.4 54.922 38.805-1.75 127.03 56.875 115.98 58.626-11.05 55.339 85.063-25.989 90.544-81.324 5.505-35.882-87.421-99.031-119.12-11.651-5.852-24.081-6.473-36.784-3.812z" clip-rule="evenodd" fill="#214182" fill-rule="evenodd"/> <path d="m1686.6 1566.4c-15.536 23.186 3.89 35.009-0.784 51.818-6.311 22.642-26.121 122.87-108.88 116.72-82.765-6.154-44.594-105.05-104.87-81.793-60.308 23.251-30.777 40.866-64.065 115.45-33.325 74.607-85.187-15.563-56.432-112.06 28.782-96.499 67.941-84.356 86.927-132.26 0.752-1.919 1.623-3.64 2.584-5.233 4.842 1.002 9.556 2.505 14.153 4.665 126.57 59.493 75.957-36.741 186.21-16.957 79.347 14.211 46.843 30.072 45.161 59.655z" clip-rule="evenodd" fill="#214182" fill-rule="evenodd"/> <path d="m3902.1 821.84c-48.289-3.336-57.429 20.171-79.406-0.258-19.893-18.482-89.788-31.887-144.63-10.218-5.495-14.804-11.524-31.307-21.153-42.478-24.099-27.973-68.271 27.286-87.004 72.144-18.777 44.824-85.218 5.979-110.4 33.409-25.178 27.401 48.961 46.771 75.154 67.227 26.239 20.437-20.327 24.698-58.181 15.665-17.816-4.187-20.4 10.885-18.034 27.959-6.156-1.093-13.02-1.555-20.844-1.244-32.785 1.192-54.102-4.382-69.642-13.793-29.612-28.744-57.891-125.65-24.544-130.66 34.29-5.141 27.509-38.04-9.656-36.176-37.128 1.868-29.539-79.275 12.938-89.978 42.359-10.706 37.102 39.76 58.263 24.38 21.216-15.371 53.357-33.025 72.814-67.014 19.476-33.989-45.65-49.59-58.879-36.772-13.328 12.877-15.967-13.502-30.718-43.892-8.306-17.195-0.743-74.814 16.283-128.14 43.521-12.12 27.708-69.381 131-57.166 105.41 12.442 90.377 69.914 79.207 95.265-11.089 25.354-0.689 92.433 18.106 67.646 18.795-24.784 42.151-27.715 73.177-30.006 0 0 5.485-14.273 17.164-28.966 29.249 59.751 12.747 44.18 5.268 86.65-7.979 45.685-3.318 86.061 14.979 47.392 18.323-38.758 70.312-33.333 43.719-7.573-26.528 25.765-57.41 88.205-19.094 132.68 38.288 44.447 138.14 48.776 138.14 48.776s-1.433 1.938-4.034 5.148z" clip-rule="evenodd" fill="#1D1D51" fill-rule="evenodd"/> <path d="m2638.2 551.06c-1.705-2.765-3.953-5.571-6.854-8.493-34.408-34.897-61.155 13.988-107.6-24.917-1.995-1.705-3.98-3.611-5.902-5.513 11.388-19.72 36.112-48.935 67.492-68.045 45.197-27.422 3.382-66.051 40.139-104.86 36.828-38.935 60.384-44.896 60.384-44.896s-40.229-33.436-68.517-77.013c41.543-6.922 63.194-4.703 65.77-39.285 2.738-36.805 60.783-70.981 125.73-73.931 64.945-2.815 59.242 73.821 75.427 42.618 16.192-31.067 57.736-71.207 152.18-56.47 94.438 14.738 77.646 75.19 100.99 92.283 23.393 17.166 40.683-7.729 105.02 18.639 64.31 26.364 77.61 116.66 22.549 111.07-19.484-1.988-30.12 4.188-34.019 12.151-20.608-16.417-26.665-37.706-26.665-37.706s-13.809-42.632-84.475-24.752c-70.685 17.812-63.259 63.084-54.754 72.986 8.532 9.833-22.521-7.833-52.796 46.88-30.291 54.847 15.686 99.806 34.064 101.18 18.414 1.369-22.032 47.746-73.105 30.079-51.091-17.736-149.41-21.939-129.35 39.696 20.064 61.57 49.567 79.205 7.97 79.155-41.598-4e-3 -91.093 2.504-99.644 34.208-8.522 31.733-90.667-3.653-98.582 40.479-7.906 44.096 84.447 107.98 42.278 115.63-42.188 7.625-159.15-36.512-159.4 49.81-0.209 86.297-38.171 98.913-97.44 66.738-59.251-32.164-81.654-83.151-48.145-119.19 33.483-36.011 57.547-89.751 88.537-92.075 30.999-2.301 71.109 17.637 88.337-27.302 17.227-44.968 46.911-50.458 86.596-65.99 39.685-15.586 22.938-18.34 50.193-53.333 27.264-34.912 86.959-70.589 54.536-69.888-32.413 0.632-60.348 3.223-64.22-27.917-3.809-30.929-5.476 52.77-56.722 67.969zm283.63-300.8c37.128-1.841 68.072 17.376 31.552 31.641-36.466 14.2-16.32 32.681-48.479 71.894-32.214 39.214-29.367 0.93-64.836 42.942-35.523 42.077-52.233-2.33-47.065-51.263 5.203-48.936 88.88-96.631 128.83-95.214z" clip-rule="evenodd" fill="#1D1D51" fill-rule="evenodd"/> <path d="m2425.7 1143.3c-13.962 8.958-30.037 14.021-43.765 20.597-13.972-5.719-25.469-16.209-35.378 2.255-5.313 10.007-1.695 21.089 3.88 33.066-4.76 26.842-25.241 57.786-46.929 83.046-6.683-5.329-10.826-13.283-10.101-22.943 2.394-32.189-16.175-52.079-62.968-44.749-46.767 7.285-12.458-81.079-37.881-112.26-25.433-31.167-51.771 33.141-88.156 45.827-36.402 12.703-42.958-106.44 15.776-149.88 58.707-43.364 113.4 8.437 113.4 8.437s1.577-83.099 26.248-62.732c24.716 20.3 44.399 24.856 86.75-5.894 42.378-30.797 94.829 30.145 107.6 86.571 9.033 39.865-8.856 89.977-28.477 118.66z" clip-rule="evenodd" fill="#1D1D51" fill-rule="evenodd"/> <path d="m1663.2 1227.5c3.641-7.732 6.633-16.021 8.886-24.906 17.494-69.571-3.423-37.246-27.128-91.422-23.709-54.149-7.466-65.287-17.444-96.867-0.376-1.124-0.625-2.189-0.816-3.103 12.05-1.48 26.811-1.863 40.949-0.894 7.635 1.875 15.527 3.253 22.979 3.144 20.654 4.554 34.015 13.55 24.022 28.66-24.303 36.693 17.653 73.717 46.767 75.882 29.14 2.167 35.278 105.91-6.614 88.913-41.893-16.977-19.117 49.455-60.516 46.376-22.906-1.704-25.935-10.469-31.085-25.783z" clip-rule="evenodd" fill="#1D1D51" fill-rule="evenodd"/> <path d="m1497.1 1428.8c-5.685-2.595-11.347-5.649-16.892-9.362-67.547-45.084-94.765-93.362-37.989-110.71 56.767-17.354 58.82-44.939 103.44-23.116 5.304 2.621 10.903 4.371 16.683 5.388-34.825 20.978-61.999 83.128-20.409 103.48 25.635 12.543-4.552 29.571-44.835 34.322z" clip-rule="evenodd" fill="#1D1D51" fill-rule="evenodd"/> <path d="m2024.5 1082.1c-12.549-17.882-14.217-16.495-54.675 9.79-40.482 26.262-119.3 8.079-119.3 8.079s2.321 31.003 53.372 28.616c51.031-2.341 40.41 36.927 80.598 35.29 40.21-1.637 70.347-54.872 40.01-81.775z" clip-rule="evenodd" fill="#1D1D51" fill-rule="evenodd"/> <path d="m2857.2 889.66c-17.698-10.545-49.351 21-30.211 33.236 19.131 12.188 50.293-13.233 30.211-33.236z" clip-rule="evenodd" fill="#1D1D51" fill-rule="evenodd"/> <path d="m1364.1 26.171c-9.847 18.28-26.33 31.495-26.33 31.495s55.208-17.07 69.891 18.661c0 0-77.697-17.28-100.6 58.005-22.997 75.417-125.97 87.038-75.398 106.16 50.605 19.189 71.011 107.41 17.703 124.64-53.308 17.195-57.778 51.592-27.268 107.8 30.482 56.213-77.09 52.02-123.72 31.239-46.621-20.829-22.313 92.73-115.93 81.911-93.609-10.828-58.013-100.63-94.901-122.68-36.893-21.971-141.38-16.238-186.5 20.85-45.152 37.085-75.911 113.8-32.132 120.92 43.779 7.065 60.053-30.226 78.681 3.937 18.654 34.114 83.971-14.976 66.01 45.354-17.983 60.329-98.428 2.321-128.74 21.234-30.306 18.96-13.65 40.421 19.208 39.009 32.858-1.417 71.432 11.093 56.44 57.146-14.978 46.108-106.9 64.351-112.22 32.15-5.295-32.198 18.006-86.329-12.263-80.907-30.288 5.495 8.713 38.23-46.404 40.902-55.107 2.625-12.711 27.917-55.656 35.311-42.908 7.441-117.16-4.859-97.113 23.632 20.019 28.436 25.341 73.139-79.542 84.59-104.88 11.474-96.796-45.701-175.24-78.511-43.62-18.254-102.29-10.229-155.93-1.254v-716.68c17.521-8.992 25.459-23.021 14.878-44.414-5.093-10.281-10.161-19.902-14.881-28.862v-11.643h1337.9z" clip-rule="evenodd" fill="#2082AF" fill-rule="evenodd"/> <path d="m2967.8 26.171c-8.504 52.004-101.02 81.67-136.24 52.563-43.602-35.987-85.825 39.892-134.36 70.92-48.589 31.026-37.4-41.344-92.644-49.309-55.298-7.904-66.423-39.581-16.52-62.864 6.429-2.99 13.582-6.8 21.08-11.311h358.69v1e-3z" clip-rule="evenodd" fill="#53B1DA" fill-rule="evenodd"/> <path d="m731.51 1036.1c-35.56-14.21-109.54 35.21-65.761 42.323 43.774 7.093 65.153 17.376 54.898 38.749-10.259 21.408 19.548 35.181 39.608 11.621 20.029-23.543-4.936-88.982-28.745-92.693z" clip-rule="evenodd" fill="#53B1DA" fill-rule="evenodd"/> <path d="m851.98 1100c-15.654-9.852-32.658 24.519-14.588 27.782 18.034 3.284 9.62 13.247 17.64 21.563 8.078 8.298 27.245 9.724 26.742-9.568-0.508-19.318-24.141-38.408-29.794-39.777z" clip-rule="evenodd" fill="#53B1DA" fill-rule="evenodd"/> <path d="m650.95 1121.6c-28.891-12.729-56.49-4.2-60.248 7.074-3.727 11.304 32.35 5.295 44.599 9.096 12.249 3.806 25.563-6.766 15.649-16.17z" clip-rule="evenodd" fill="#53B1DA" fill-rule="evenodd"/> <path d="m2531.3 26.171c-26.366 21.317-73.459 23.002-76.161 59.277-2.991 40.234-80.774 49.804-118.45 12.363-23.347-23.245-28.696-49.565-22.104-71.641h216.71v1e-3z" clip-rule="evenodd" fill="#53B1DA" fill-rule="evenodd"/> <path d="m2377.7 148.85c-2.711 36.4 47.438 61.307 77.457 46.22 30.038-15.085 74.873-48.351 78.699 3.96 3.835 52.313-62.07 31.982-70.14 62.166-8.016 30.255-97.494 15.885-137.66-14.097-40.129-29.911-41.462-89.749-21.18-103.67 20.292-13.847 62.615-12.661 72.824 5.418z" clip-rule="evenodd" fill="#53B1DA" fill-rule="evenodd"/> <path d="m1225.1 376.21c-29.512 19.333-28.007 50.688-3.028 96.726 30.482 56.213-77.09 52.02-123.72 31.239-36.304-16.198-29.621 49.038-69.089 73.658-12.802 1.99-27.286 5.588-41.833 8.727-1.659-0.123-3.314-0.245-5.005-0.474-63.775-7.355-67.583-51.405-75.208-85.696 14.987-31.657 41.779-61.191 56.735-87.283 24.326-42.498-32.169-85.221-61.26-108.58-29.1-23.354-2.955-63.76 26.838-102.07 29.848-38.236 8.119-57.173-39.354-66.455-24.14-4.719-36.878-55.411-38.851-109.83h256.21c-1.098 6.795-0.988 14.665 0.925 23.911 14.18 68.506-65.435 51.016-106.32 82.679-40.877 31.598 23.823 42.23 54.768 92.7 30.917 50.473 120.1 16.649 132.89 52.307 10.982 30.651 40.499 62.759 35.295 98.443z" clip-rule="evenodd" fill="#2A8FBC" fill-rule="evenodd"/> <path d="m621.85 26.171c-3.182 13.006 0.322 25.008 14.484 30.512 34.477 13.253 56.549-14.332 93.999 62.401 37.464 76.802 52.923 138.1 18.306 147.83-34.63 9.724-8.069 25.557 18.515 41.441 26.565 15.833 21.021 110.99-92.589 167.25-113.64 56.277-128.72 10.463-156.37-11.633-27.631-22.103-97.862-10.35-80.825-32.221 17.045-21.864 24.426-79.842-0.581-95.584-25.042-15.722-15.404 20.407-55.932 26.62-40.551 6.292-17.154 23.396-44.02 73.833-26.864 50.414-61.662 0.021-79.288-32.101-17.657-32.144-68.299-55.984-99.874-4.358-31.584 51.564 1.378 84.881 23.333 100.37 21.969 15.491 29.458 80.805-9.955 71.69-39.386-9.066-44.79 42.945-74.315 25.33-28.075-16.773-45.315-10.383-70.571-12.815v-558.56h595.68z" clip-rule="evenodd" fill="#262C6A" fill-rule="evenodd"/> <path d="m93.509 326.24c27.926-2.55 87.14-11.242 79.134 13.607-8.006 24.815-69.451 21.78-79.47 11.779-10.068-9.984-6.727-23.588 0.336-25.386z" clip-rule="evenodd" fill="#1FC0DA" fill-rule="evenodd"/> <path d="m98.967 150.57c-13.962-19.509-49.567-17.555-38.429-1.303 11.12 16.187 62.827 46.215 38.429 1.303z" clip-rule="evenodd" fill="#1FC0DA" fill-rule="evenodd"/> <path d="m478.41 158.46c-14.044-18.364-32.813-64.074-50.501-46.177-17.73 17.964-7.553 49.57 13.428 65.541 20.943 16.037 46.57 8.335 37.073-19.364z" clip-rule="evenodd" fill="#1D1D51" fill-rule="evenodd"/> <path d="m753.24 299.89c4.411 2.777 9.14 5.612 13.913 8.469 26.565 15.833 21.021 110.99-92.589 167.25-113.64 56.277-128.72 10.463-156.37-11.633-27.631-22.103-97.862-10.35-80.825-32.221 17.045-21.864 24.426-79.842-0.581-95.584-15.44-9.715-17.689 0.3-26.665 10.876-4.946-23.147-15.708-44.096-15.708-44.096-30.786-26.375-29.607-67.697 4.189-69.039 33.814-1.273 38.03 6.685 74.143-12.752 36.145-19.503 63.146-6.873 96.978-8.28 33.792-1.273 87.281-7.917 104.98 26.146 17.689 34.091-41.027 72.035 11.424 66.35 20.417-2.244 45.21-6.351 67.115-5.485z" clip-rule="evenodd" fill="#1D1D51" fill-rule="evenodd"/> <path d="m1984.3 26.171c12.127 17.34 12.657 40.575-17.834 39.422-34.698-1.199-43.049-18.438-47.854-39.422h-26.964c-2.706 7.416-4.429 16.146-4.234 25.083 0.648 32.456 48.97 107.7 100.52 98.405 51.582-9.221 79.463 40.551 127.07 21.835 47.672-18.779 77.937-32.021 79.043-78.148 1.043-42.69-51.816-53.11-66.694-67.175h-143.05z" clip-rule="evenodd" fill="#1771A4" fill-rule="evenodd"/> <path d="m1657.9 122.06c22.146-7.689 45.048-46.037 55.701-23.662 10.663 22.376 50.987-22.388 62.624 7.772 11.614 30.155 29.734 14.457 53.884 0.896 24.122-13.632 28.968 3.71 47.654 22.014 18.673 18.369-32.586 23.825-23.904 52.208 8.672 28.384-3.831 72.176-26.135 61.246-22.3-10.926-26.33-60.546-44.672-41.884-18.333 18.659-58.938 46.558-68.182 25.776-9.253-20.713-10.59-43.951 12.966-49.912 23.551-5.891 17.34-46.472-25.192-34.213-42.527 12.196-85.104 4.428-44.744-20.241z" clip-rule="evenodd" fill="#1771A4" fill-rule="evenodd"/> <path d="m1052.5 605.64c-35.537-19.598-46.726 27.381-72.375 40.891-25.677 13.476 31.896 26.992 43.733 54.104 11.868 27.091 44.055 29.485 94.085-0.693 50.031-30.183-2.475-91.127-65.443-94.302z" clip-rule="evenodd" fill="#1771A4" fill-rule="evenodd"/> <path d="m3787.2 1486.9s-53.946 62.254-131.29 65.756c-77.32 3.505-87.756-21.918-87.756-21.918s161.98-1.834 219.04-43.838z" clip-rule="evenodd" fill="#80C7C1" fill-rule="evenodd"/> <path d="m3656.2 1486.4s-161.57 58.85-279.06 63.965c-117.5 5.141-219.54-53.296-219.54-53.296s30.899-0.796 54.999-14.394c0 0-195.09-8.349-253.72-28.157-58.643-19.752-55.18-45.699-55.18-45.699s36.911 1.184 44.518-18.27c7.635-19.443 56.005-48.244 116.62-34.482 60.62 13.766 42.296 52.467 67.61 65.142 25.232 12.667 31.888-14.583 55.243-17.472 23.311-2.895 96.452 8.736 133.83-59.405 0 0 11.216 36.292-14.924 55.928-26.13 19.632-35.877 26.606-35.877 26.606l45.324-8.956s-35.786 46.66-12.657 46.843c23.075 0.161 74.175-23.757 74.175-23.757s-25.468 32.008-9.121 39.388c16.402 7.382 73.967 20.919 101.31 5.979 27.291-14.921 159.23-6.641 186.46 0.037z" clip-rule="evenodd" fill="#80C7C1" fill-rule="evenodd"/> <path d="m3131.6 1265.5s-46.321 42.811-133.2 50.202c-86.841 7.423-125.68-9.35-125.68-9.35s27.2 28.227 65.97 24.954c0 0-77.385 25.074-111.54 7.115-34.073-17.945-18.832-15.284-102.21-13.761-83.359 1.494-87.34-48.122-106.48-60.33-19.131-12.215-52.025-25.452-59.061-55.271 0 0 81.736 19.956 115.61-0.635 33.928-20.608 32.83-26.826 32.83-26.826s-41.743 1.496-62.252-12.355c-20.554-13.85-18.613-39.914-18.613-39.914s48.951 25.224 140.72-6.48l91.737-31.731s-7.453 38.001-56.313 52.85c-48.896 14.874-50.529 16.289-50.529 16.289s15.287 22.71 64.655 21.755c49.377-0.955 59.042-6.419 59.042-6.419s-12.448 22.211-46.975 30.455c0 0 69.043 25.153 134.68 13.063l-52.396 20.776 75.227 4.06s-18.822 24.802-62.197 27.74c-2e-3 -2e-3 44.67 41.848 206.98-6.187z" clip-rule="evenodd" fill="#80C7C1" fill-rule="evenodd"/> <path d="m2504.7 1218.8s-22.141 49.209-70.076 71.847c0 0 42.577 7.795 64.945-2.86l-42.46 32.277s41.889 17 101.63 1.396l59.695-15.604s5.975 23.583-72.625 43.944c-78.544 20.332-148.62 8.963-183.86 6.342-35.261-2.625-30.781 40.866-86.551 44.438-55.733 3.545-68.988-25.178-68.988-25.178s59.432 9.046 73.286-11.497c13.845-20.552 45.515-32.078 82.443-30.867 36.874 1.215 15.377-20.43 32.531-43.829 17.137-23.371 72.897-26.916 110.03-70.409z" clip-rule="evenodd" fill="#80C7C1" fill-rule="evenodd"/> <path d="m2175.4 1419.4c-9.773 6.966-28.75 54.845-71.636 113.32-42.876 58.485-68.372 90.484-144.8 81.732-76.405-8.777-71.687-51.581-45.166-55.771 26.516-4.219 54.273-4.452 96.055-27.547 41.807-23.073 50.72-49.411 50.72-49.411s-41.616 30.806-77.963 32.758c-36.366 1.895-48.135-5.91-48.135-5.91s63.652-6.075 80.981-31.733c17.29-25.686 16.729-28.03 16.729-28.03s-62.046 15.404-71.639-0.7c-9.584-16.132 73.461-55.438 135.22-57 61.755-1.596 79.633 28.29 79.633 28.29z" clip-rule="evenodd" fill="#80C7C1" fill-rule="evenodd"/> <path d="m1894.9 1460.9s-16.048 8.06-56.272-10.35c-40.229-18.412-58.865-16.699-45.47 10.472 13.396 27.207 100.03 22.886 101.74-0.122z" clip-rule="evenodd" fill="#80C7C1" fill-rule="evenodd"/> <path d="m1878.7 1533.7c-16.973 0.274-79.075 6.444-124.87 41.587-45.769 35.124-92.761 45.492-96.61 14.368-3.844-31.097 16.248-52.711 72.675-65.488 56.43-12.751 148.81 9.533 148.81 9.533z" clip-rule="evenodd" fill="#80C7C1" fill-rule="evenodd"/> <path d="m1545.6 1370.2c13.804 1.026 114.75 11.633 95.541 20.994-19.181 9.359-83.903 9.171-95.541-20.994z" clip-rule="evenodd" fill="#80C7C1" fill-rule="evenodd"/> <path d="m3534.4 1171.2c-33.175-10.134-33.247 11.435-73.912 19.201-40.618 7.743-1.142 15.307 13.899 41.1 15.024 25.765 108.91 6.564 60.013-60.301z" clip-rule="evenodd" fill="#1D1D51" fill-rule="evenodd"/> <path d="m3271.2 1145.5c-39.876-2.967-70.675 17.907-48.97 36.441 21.751 18.6 88.32 14.296 48.97-36.441z" clip-rule="evenodd" fill="#1D1D51" fill-rule="evenodd"/> <path d="m26.17 1714.6c7.462 1.719 9.239 2.36 0 5.177v-5.177z" clip-rule="evenodd" fill="#262C6A" fill-rule="evenodd"/> <path d="m26.17 1616.1c17.454-6.149 35.116-13.901 52.17-23.678 91.229-52.331 222.1-84.98 275.08-106.71 53.008-21.753 57.795-34.231 57.795-34.231s-27.01 0.549-117.64 27.221c-90.594 26.629-93.559-19.82-56.477-35.031 37.105-15.241 52.619-16.645 52.619-16.645s-34.816-15.425-190.29 37.235c-28.103 9.52-52.356 19.405-73.259 29.215v122.62z" clip-rule="evenodd" fill="#262C6A" fill-rule="evenodd"/> <path d="m26.17 1447.2c35.904-22.472 105.75-60.665 169.14-63.181 90.16-3.568 112.54-10.903 187.84 12.696 75.326 23.553 99.163 13.77 129.88-36.586 30.723-50.379 30.904-87.593-46.934-111.38-77.874-23.768-154.3 54.024-198.11 55.901-43.806 1.883-13.854-38.28-39.177-26.051-25.301 12.258 34.676 34.696-19.489 55.083-54.178 20.377-22.716-5.553-31.357-44.726-8.641-39.172-44.799-2.026-42.333-35.231 2.476-33.236 6.062-47.081-20.572-51.648-26.61-4.556-4.003-32.406-6.573 36.768-2.321 62.055-66.341 106.06-82.326 140.22v68.133h1e-3z" clip-rule="evenodd" fill="#262C6A" fill-rule="evenodd"/> <path d="m26.17 1172.8c15.921 2.709 31.099 13.772 37.246 33.191 12.485 39.483-3.282 96.116-32.522 109.33-1.746 0.792-3.314 1.456-4.724 2.004v-21.272c2.797-4.683 5.807-9.806 8.564-15.112 8.11-15.619 5.372-47.84-8.564-69.314v-38.828z" clip-rule="evenodd" fill="#262C6A" fill-rule="evenodd"/> <path d="m613.23 1359.9c-51.268-1.256-122.76 44.81-100.15 51.632 22.603 6.798 76.917-32.833 71.237 9.135-5.676 41.965 16.32 5.071 42.627-3.248 26.293-8.321 10.758-58.281-13.718-57.519z" clip-rule="evenodd" fill="#262C6A" fill-rule="evenodd"/> <path d="m91.832 833.74s33.964-7.752 58.358 78.815c24.362 86.589-46.526 90.295-41.095 103.56 5.431 13.23 90.313 11.825 106.84-54.999 0 0 48.548 20.282 75.929-106.13 27.395-126.38-39.739-139.1-42.813-114.94-3.078 24.163 28.705 80.472 3.414 109.45-25.264 28.93-51.898 24.365-45.709-7.265 6.21-31.645-18.619-60.486-18.619-60.486s19.339 68.241-7.607 50.819c-26.983-17.427-64.293-51.005-88.7 1.175z" clip-rule="evenodd" fill="#262C6A" fill-rule="evenodd"/> <path d="m251.44 638.75s77.439 46.873 82.144 121.72c4.688 74.823-14.797 95.207-14.797 95.207s51.137-14.167 64.668-109.49c13.505-95.31-44.241-165.13-79.773-153.64-35.518 11.527-65.289 14.419-52.242 46.2z" clip-rule="evenodd" fill="#262C6A" fill-rule="evenodd"/> <path d="m26.17 693.52c22.975 41.263 23.374 52.224 23.374 52.224s-9.084-13.065-23.374-29.034v-23.19z" clip-rule="evenodd" fill="#262C6A" fill-rule="evenodd"/> <path d="m1322.5 1389.4s-38.025 10.032-56.436 33.053c-18.405 23.048-37.804 42.131-44.051 22.417-6.233-19.738-30.904-33.136-70.285-21.953-39.363 11.211-40.637 11.118-40.637 11.118s30.029-41.439 72.18-38.303c42.16 3.135 59.179 15.965 65.457 1.014 6.229-14.954 56.536-17.606 73.772-7.346z" clip-rule="evenodd" fill="#3B2266" fill-rule="evenodd"/> <path d="m1089.8 1357.9c-7.362-4.384-78.762-28.971-119.51-16.583-40.728 12.383-40.822 13.654-40.822 13.654s10.658-22.317 65.353-32.389c54.689-10.043 97.779 14.973 94.982 35.318z" clip-rule="evenodd" fill="#3B2266" fill-rule="evenodd"/> <path d="m1559 2059.4s-21.964 18.922-98.143 41.507c-76.178 22.586-83.831 22.015-83.831 22.015s39.453 22.213 74.355 19.013c0 0-4.288 40.147-21.007 40.846-16.746 0.671 29.408 53.557 90.105 49.06 60.692-4.452 76.623-28.959 66.028 10.082-10.604 39.023 53.652 73.35 101.84 64.075 48.226-9.248 48.353-28.516 68.662-7.726 20.291 20.763 50.837 24.317 77.91 5.794 0 0-72.03 1.033-73.844-26.049-1.845-27.109-22.988-36.375-62.257-26.457-39.268 9.91-69.772-11.642-42.641-48.144 27.105-36.512-41.117-51.844-84.574-37.102-43.488 14.743-84.602-2.457-70.788-15.54 13.833-13.11 94.972-50.746 58.183-91.374z" clip-rule="evenodd" fill="#80C7C1" fill-rule="evenodd"/> <path d="m1351.3 2036.8c7.865-1.977 120.15 7.661 93.75 17.254-26.407 9.584-47.496 17.027-70.476 15.313-22.984-1.704-24.226-19.8-23.274-32.567z" clip-rule="evenodd" fill="#80C7C1" fill-rule="evenodd"/> <path d="m836.84 2313.1s-44.631 61.418-115.14 56.169c-70.502-5.241-185.1 84.873-146.83 109.29 38.248 24.435 3.704 74.247-32.976 111.6-36.675 37.337-77.031 123.74-67.483 161.42 0 0 25.477-93.642 165.5-194.21 140.02-100.54 154.21-84.066 154.21-84.066s-118.93 65.107-152.41 142.77c0 0 59.16-91.148 192.13-96.67 132.97-5.521 150.42 91.338 160.2 42.723 9.774-48.562-70.484-88.437-132.93-77.665 0 0 24.426-38.262 103.89-29.286 79.479 9.004-16.13-32.032-46.313-40.446-30.183-8.405 34.744-52.896-18.492-41.435-53.262 11.451-81.192 55.597-138.96 45.143-57.796-10.464 101.05-32.55 75.611-105.34z" clip-rule="evenodd" fill="#334C8B" fill-rule="evenodd"/> <path d="m737.64 2610.9c-46.421 2.702-106.85 69.125-86.098 79.905 20.799 10.807 58.082-75.834 86.098-79.905z" clip-rule="evenodd" fill="#334C8B" fill-rule="evenodd"/> <path d="m451.79 2848.6c-84.134 12.258-226.08 97.258-266.52 143.54-40.442 46.34-136.97 100.8-100.64 109.66 36.339 8.868 111.15-44.146 112.63-22.448 1.482 21.678 165.58-70.911 125.48-70.82-40.075 0.108-104.56 38.47-108.9 13.5-4.274-24.989 121.09-135.88 237.94-173.44z" clip-rule="evenodd" fill="#334C8B" fill-rule="evenodd"/> <path d="m219.84 3148.9c-8.07 67.193 61.069 90.849 94.928 50.211 33.828-40.637 72.33-19.284 71.98 26.938-0.362 46.195 87.068 31.126 72.561-22.34-14.534-53.494-56.196-115.17-4.638-145.23 51.549-30.074 113.34-31.66 102.1-87.946-11.202-56.341 56.803-100.6 31.579-93.224-25.196 7.38-22.594 13.735-50.184 11.687-27.563-2.049-0.916 95.473-55.321 122.26-54.377 26.792-106.18 59.903-95.636 125.43 10.536 65.543-34.743-30.328-88.21-15.795-53.487 14.505-80.388 3.254-79.164 28.015z" clip-rule="evenodd" fill="#334C8B" fill-rule="evenodd"/> <path d="m641.57 2286.3s56.771 24.236 91.284 16.039c34.512-8.214 36.38 28.923-5.214 28.887-41.629 0-90.44-6.728-86.07-44.926z" clip-rule="evenodd" fill="#334C8B" fill-rule="evenodd"/> <path d="m681.41 1398.4c10.046 10.002 70.131 134.69 29.417 164.03-40.736 29.331-72.017 56.304-76.156 8.212-4.116-48.083-218.74 60.785-180.95 91.336 37.813 30.557 133.92 43.864 153.86 3.726 19.938-40.111 23.166-63.009 76.36-52.895 53.194 10.148 103-16.978 136.26-49.941 33.306-32.98 76.563-34.388 55.873-5.098-20.658 29.292-58.086 55.783-37.926 54.192 20.137-1.573 75.635-63.707 90.78-39.47 15.155 24.237 66.663-25.879 48.711-33.37-17.93-7.523-27.545 17.963-20.776-10.808 6.769-28.764-11.954-67.154-25.695-48.133-13.731 19-41.512 40.07-45.129 5.871-3.613-34.17 49.608-107.29-18.85-140.12-68.445-32.838-80.584-76.897-103.53-100.18-22.916-23.286-115.55 82.346-98.696 83.6 16.864 1.253 81.922-3.162 87.476 46.571 5.531 49.725-18.174 37.171-26.33 22.681-8.181-14.464-42.354-10.822-44.698-0.207z" clip-rule="evenodd" fill="#1FC0DA" fill-rule="evenodd"/> <path d="m26.17 2870.9c13.247-7.299 27.645-25.097 30.128-47.383 3.287-29.467-9.497-53.838-30.128-72.869v120.25z" clip-rule="evenodd" fill="#80C7C1" fill-rule="evenodd"/> <path d="m179.63 2860c8.164-32.114 81.219-55.569 113.04 8.405 31.847 64.047-18.954 73.767-42.654 81.618-23.719 7.87-32.572-2.402-27.817-40.601 4.755-38.179-16.946-57.119-42.568-49.422z" clip-rule="evenodd" fill="#80C7C1" fill-rule="evenodd"/> <path d="m484.8 3031.1c22.93-23.347 81.7-36.284 113.04 8.414 31.348 44.726 14.094 95.464-19.693 83.314-33.769-12.159 17.131-48.843-11.828-74.103-28.95-25.295-72.443-36.202-81.518-17.625z" clip-rule="evenodd" fill="#80C7C1" fill-rule="evenodd"/> <path d="m57.537 1781.7s74.297 11.277 102.78-34.769c28.483-46.05 61.631-103.28 86.46-74.488 24.829 28.846-18.709 121.94-52.927 115.53-34.19-6.401-130.34 17.277-136.31-6.276z" clip-rule="evenodd" fill="#1FC0DA" fill-rule="evenodd"/> <path d="m119.24 1884.5c27.757 15.541 113.89 48.921 94.203 80.208-19.634 31.292-98.814-43.964-94.203-80.208z" clip-rule="evenodd" fill="#1FC0DA" fill-rule="evenodd"/> <path d="m35.646 1920.7c13.273 2.935 100.69 19.047 60.806 37.275-22 10.068-54.522-11.719-70.281-28.096v-14.037c2.565 1.091 5.684 2.673 9.475 4.858z" clip-rule="evenodd" fill="#80C7C1" fill-rule="evenodd"/> <path d="m307.8 1628.8c56.295-5.434 111.99-3.232 101.27 11.415-10.726 14.593-143.2 8.595-101.27-11.415z" clip-rule="evenodd" fill="#1FC0DA" fill-rule="evenodd"/> <path d="m316.04 1854.9c3.183-17.123 81.415-32.5 130.08-13.46 48.67 19.031 83.323-32.332 157.53 5.935 74.211 38.271 47.378 88.308 27.726 67.565-19.652-20.738-66.468-64.664-99.892-55.574-33.424 9.076 7.448 29.421-5.644 49.672-13.056 20.219-68.454-37.872-130.05-38.597-61.585-0.716-72.257 38.939-83.178 30.428-10.921-8.505-19.226-26.485 3.422-45.969z" clip-rule="evenodd" fill="#1FC0DA" fill-rule="evenodd"/> <path d="m54.322 2317.1c11.918-4.914 64.179-33.782 123.18 1.441 59.047 35.197 48.829 17.109 92.476-25.867 43.67-43.003 114.18-6.927 89.148-6.872-25.061 0.081-95.667 42.967-69.441 52.641 26.284 9.647 62.456 41.254 38.597 51.037-23.846 9.782-59.541-2.503-108.07-23.446-48.526-20.945-100.95-67.24-165.9-48.934z" clip-rule="evenodd" fill="#91CBAB" fill-rule="evenodd"/> <path d="m2995.3 2744.8s24.019-63.748 27.727-113.56c3.699-49.803 118.1-33.592 101.48-69.496-16.574-35.932-81.392-148.62-26.756-210.08 54.672-61.418 131.16-1.805 152.89-34.853 21.733-33.058 56.921 11.932 110.28 19.756 53.34 7.825 89.407 41.326 89.407 41.326s-135.81 13.002-151.03 61.98c-15.224 48.979 17.652 124.61-49.722 150.42-67.421 25.813-117.67-24.145-134.01 40.111-16.346 64.293-45.007 35.207-120.26 114.4z" clip-rule="evenodd" fill="#334C8B" fill-rule="evenodd"/> <path d="m2797.4 3023c0.698-61.617 42.46-104.77 117.28-126.15 74.782-21.424 82.443-20.862 82.443-20.862s-166.94 68.527-199.72 147.01z" clip-rule="evenodd" fill="#334C8B" fill-rule="evenodd"/> <path d="m3542.3 2488.8s-41.154-68.563 47.156-115.96c88.3-47.383 7.407-99.616 37.935-147.43 30.51-47.809 17.635-29.521 80.93-51.762 63.276-22.295 146.77-108.56 180.28-40.556 33.438 67.982-141.44 35.723-110.61 88.102 30.746 52.378 102.26 127.05 51.89 131.03-50.356 3.944 6.79 116.09-27.881 167.43-34.607 51.399-113.41 22.423-138.6-52.677-25.305-75.09-88.029-60.483-121.1 21.833z" clip-rule="evenodd" fill="#334C8B" fill-rule="evenodd"/> <path d="m3598.3 2512.3c-39.739 16.293-52.832 88.519-10.708 91.656 42.188 3.137 59.66-76.479 10.708-91.656z" clip-rule="evenodd" fill="#334C8B" fill-rule="evenodd"/> <path d="m3973.8 2947.3c-24.344 6.52-44.854 4.851-56.205-14.461-30.745-52.333-95.463-10.926-95.463-10.926 39.295-62.605 104.56-7.643 104.71-61.581 0.091-31.153 23.238-43.873 46.957-55.434v142.4z" clip-rule="evenodd" fill="#334C8B" fill-rule="evenodd"/> <path d="m2285.7 1938.1c-35.16 32.078-98.936 35.024-82.761 76.706 16.157 41.644 11.597 102.97 19.901 120.92 8.296 17.952 24.354-42.522 57.211-43.91 32.876-1.423-18.858-57.292 11.017-70.457 29.874-13.192 63.603-26.105 39.975-45.197-23.637-19.118-45.343-38.065-45.343-38.065z" clip-rule="evenodd" fill="#5975A1" fill-rule="evenodd"/> <path d="m1449.2 2793.3c11.27 3.835 86.945 22.059 154.35 22.621 67.406 0.544 5.938-1.805-1.877-26.692-8.164-19.856 47.061-10.943 17.358-25.677-29.743-14.725-234.35-22.25-216.74-13.246 17.64 9.03 78.831 28.034 46.916 42.994z" clip-rule="evenodd" fill="#5975A1" fill-rule="evenodd"/> <path d="m1555.9 2692.3c27.572 4.969 164.46 3.563 153.8 17.245-10.653 13.654 104.15 24.108 105.42 32.894 1.287 8.759-115.76 15.45-183.82-2.112-68.056-17.59-105.52-31.933-75.404-48.027z" clip-rule="evenodd" fill="#5975A1" fill-rule="evenodd"/> <path d="m2728.4 1818s-32.559 23.266-59.795 44.359c-27.3 21.104 33.528 50.021 66.159 25.473 32.659-24.517 16.738-69.392-6.364-69.832z" clip-rule="evenodd" fill="#5975A1" fill-rule="evenodd"/> <path d="m2860.1 1947.3c-16.728 0.034-4.089 20.223-38.188 12.551-34.118-7.68-24.853 5.87-56.44 16.356-31.634 10.506-67.819 30.924-49.006 37.47 18.732 6.528 41.426-4.624 62.986-18.457 21.606-13.809 24.688-21.28 48.879-18.199 24.18 3.103 39.802-34.293 31.769-29.721z" clip-rule="evenodd" fill="#5975A1" fill-rule="evenodd"/> <path d="m2612 1914.7c-16.91 2.577-59.424 4.549-67.284 41.215-7.87 36.69-23.456-13.301-18.07-33.427 5.358-20.16 60.339-34.068 76.251-23.886 15.967 10.187 9.103 16.098 9.103 16.098z" clip-rule="evenodd" fill="#5975A1" fill-rule="evenodd"/> <path d="m1658.1 2893.1c14.951 6.229 75.417-12.367 109.26 15.849 33.877 28.188 80.539-12.005 155.46 16.701 74.945 28.659 99.646 7.407 63.227-20.99-36.439-28.405-28.188-0.843-76.033-31.353-47.809-30.555-79.77 1.759-126.06-14.516-46.314-16.302-120.5 14.153-125.86 34.309z" clip-rule="evenodd" fill="#5975A1" fill-rule="evenodd"/> <path d="m2086.7 2881.3s120.34 5.096 112.44 25.061c-7.898 19.964-127.49 4.659-112.44-25.061z" clip-rule="evenodd" fill="#5975A1" fill-rule="evenodd"/> <path d="m2327.7 3025.1c-42.378 17.381-94.629 28.904-134.18 77.357-39.567 48.416-152.55 47.718-128.13 64.944 24.398 17.236 75.788-17.48 148.27-24.942 72.471-7.443 85.281-75.851 114.04-117.36z" clip-rule="evenodd" fill="#5975A1" fill-rule="evenodd"/> <path d="m1702.8 3276.5c35.011 12.901 56.028 6.772 100.11-33.646 44.114-40.356 161.26-26.529 136.94-10.346-24.339 16.166 97.81-3.001 88.86 14.308-8.994 17.309-95.134 0.644-129.95 54.555-34.816 53.919-64.632 5.448-119.61 19.357-54.953 13.89-185.26 4.197-185.26 4.197s109.96-27.799 64.179-33.729c-45.81-5.992-25.917-66.159 19.67-57.646 45.596 8.523 25.06 42.95 25.06 42.95z" clip-rule="evenodd" fill="#5975A1" fill-rule="evenodd"/> <path d="m1911.9 2631.5s179.94 67.338 173.06 82.234c-6.899 14.906-110-23.591-131.96-38.732-22.015-15.105-53.304-34.761-41.1-43.502z" clip-rule="evenodd" fill="#5975A1" fill-rule="evenodd"/> <path d="m3516.2 2996.1c56.494 17.671 86.052 8.313 119.88-31.553 33.773-39.848 138.38-47.519 120.52-41.1-17.734 6.383-38.588 52.995 12.585 64.501 51.172 11.496 60.157 19.883 60.157 19.883s-48.054-1.649-98.165 25.45c-50.193 27.073-16.447-12.783-49.758-30.672-33.384-17.897-146.38 50.756-165.21-6.509z" clip-rule="evenodd" fill="#5975A1" fill-rule="evenodd"/> <polygon points="2314.8 470.92 2306.6 426.16 2264.5 420.34 2306 412.34 2310.5 367.24 2318.8 412 2360.8 417.82 2319.3 425.75" clip-rule="evenodd" fill="#1FC0DA" fill-rule="evenodd"/> <path d="m750.42 2435.3c7.68-0.145 13.913 6.429 13.963 14.688 0.054 8.241-6.106 15.068-13.754 15.187-7.657 0.146-13.922-6.401-13.972-14.661-0.028-8.269 6.138-15.069 13.763-15.214z" clip-rule="evenodd" fill="#fff" fill-rule="evenodd"/> <path d="m1160.6 1667.2c9.837-0.165 17.866 8.278 17.925 18.87 0.082 10.615-7.833 19.385-17.689 19.55-9.838 0.215-17.871-8.264-17.92-18.876-0.087-10.586 7.855-19.361 17.684-19.544z" clip-rule="evenodd" fill="#fff" fill-rule="evenodd"/> <path d="m604.9 1248.1c13.573-0.297 24.67 11.368 24.757 26.001 0.086 14.652-10.857 26.729-24.431 26.996-13.573 0.27-24.643-11.419-24.725-26.026-0.117-14.657 10.831-26.729 24.399-26.971z" clip-rule="evenodd" fill="#1FC0DA" fill-rule="evenodd"/> <path d="m3562.8 686.13c21.715-0.415 39.396 18.222 39.531 41.571 0.145 23.422-17.336 42.686-39.051 43.101-21.696 0.483-39.403-18.153-39.53-41.57-0.091-23.416 17.335-42.687 39.05-43.102z" clip-rule="evenodd" fill="#1FC0DA" fill-rule="evenodd"/> <path d="m3837.6 2579.3c15.25-0.317 27.672 12.774 27.735 29.167 0.063 16.42-12.177 29.957-27.418 30.256-15.178 0.3-27.6-12.793-27.735-29.194-0.064-16.393 12.177-29.921 27.418-30.229z" clip-rule="evenodd" fill="#1FC0DA" fill-rule="evenodd"/> <path d="m3140.4 1617.1c10.318-0.2 18.714 8.622 18.805 19.752 0.072 11.102-8.224 20.282-18.523 20.461-10.317 0.199-18.731-8.652-18.805-19.733-0.046-11.099 8.233-20.299 18.523-20.48z" clip-rule="evenodd" fill="#1FC0DA" fill-rule="evenodd"/> <path d="m3939.7 1563.5c10.29-0.181 18.695 8.677 18.75 19.777 0.054 11.079-8.206 20.255-18.496 20.457-10.3 0.179-18.777-8.657-18.832-19.756-0.054-11.128 8.279-20.27 18.578-20.478z" clip-rule="evenodd" fill="#1FC0DA" fill-rule="evenodd"/> <path d="m2915 707.6c15.44-0.333 28.079 12.981 28.188 29.659 0.117 16.705-12.358 30.478-27.826 30.754-15.485 0.284-28.125-12.983-28.216-29.659-0.09-16.697 12.367-30.471 27.854-30.754z" clip-rule="evenodd" fill="#fff" fill-rule="evenodd"/> <path d="m3242.4 941.06c22.631-0.413 41.082 18.981 41.209 43.382 0.153 24.38-18.089 44.497-40.691 44.912-22.613 0.442-41.063-18.952-41.235-43.384-0.082-24.347 18.06-44.47 40.717-44.91z" clip-rule="evenodd" fill="#fff" fill-rule="evenodd"/> <path d="m3400.2 580.14c9.783-0.152 17.771 8.221 17.88 18.852 0.036 10.559-7.825 19.24-17.635 19.46-9.828 0.213-17.789-8.226-17.871-18.784-0.063-10.562 7.798-19.314 17.626-19.528z" clip-rule="evenodd" fill="#fff" fill-rule="evenodd"/> <path d="m3658.5 1046.6c13.891-0.321 25.196 11.587 25.287 26.579 0.109 14.936-11.062 27.295-24.961 27.52-13.881 0.322-25.187-11.589-25.269-26.579-0.063-14.958 11.071-27.302 24.943-27.52z" clip-rule="evenodd" fill="#fff" fill-rule="evenodd"/> <path d="m957.64 230.23c10.581-0.193 19.199 8.89 19.267 20.272 0.077 11.427-8.446 20.833-19.022 21.015-10.585 0.222-19.203-8.862-19.271-20.26-0.073-11.426 8.446-20.835 19.026-21.027z" clip-rule="evenodd" fill="#fff" fill-rule="evenodd"/> <path d="m951.11 741.64c11.343-0.233 20.591 9.536 20.682 21.712 0.063 12.249-9.049 22.336-20.419 22.558-11.342 0.206-20.59-9.507-20.653-21.758-0.091-12.197 9.048-22.281 20.39-22.512z" clip-rule="evenodd" fill="#1FC0DA" fill-rule="evenodd"/> <path d="m779.61 509.65c11.37-0.229 20.613 9.532 20.672 21.761 0.09 12.251-9.049 22.309-20.392 22.542-11.342 0.224-20.59-9.538-20.672-21.742-0.09-12.225 9.067-22.31 20.392-22.561z" clip-rule="evenodd" fill="#1FC0DA" fill-rule="evenodd"/> <path d="m3013.4 158.57c11.37-0.235 20.618 9.518 20.663 21.696 0.109 12.254-9.058 22.329-20.4 22.569-11.333 0.173-20.563-9.513-20.645-21.765-0.063-12.248 9.049-22.328 20.382-22.5z" clip-rule="evenodd" fill="#1FC0DA" fill-rule="evenodd"/> <polygon points="2319 996.25 2326.1 1042.7 2369.2 1049.3 2326.2 1057 2320.1 1103.5 2313 1057.1 2269.9 1050.5 2312.9 1042.9" clip-rule="evenodd" fill="#fff" fill-rule="evenodd"/> <path d="m3287.2 26.171c-3.555 39.563 87.167 34.27 128.95 15.646 46.621-20.828 22.322 92.729 115.94 81.911 71.437-8.265 67.619-62.524 78.209-97.558h-323.09v1e-3zm531.21 0c42.387 38.391 69.36 109.8 27.2 116.65-43.783 7.065-60.058-30.227-78.681 3.939-18.659 34.111-83.976-14.979-66.015 45.352 17.988 60.33 98.428 2.321 128.75 21.234 30.301 18.961 13.646 40.422-19.213 39.01-32.857-1.419-71.427 11.093-56.439 57.145 14.978 46.109 106.9 64.352 112.22 32.15 5.305-32.197-17.997-86.328 12.268-80.906 30.292 5.494-8.713 38.229 46.403 40.902 51.871 2.471 17.363 25.021 48.942 33.828v-309.3h-155.43z" clip-rule="evenodd" fill="#2082AF" fill-rule="evenodd"/> <path d="m3287.2 26.171c-3.555 39.563 87.167 34.27 128.95 15.646 36.304-16.197 29.621 49.037 69.089 73.658 12.802 1.99 27.29 5.587 41.833 8.727 1.659-0.125 3.318-0.247 5.015-0.474 63.766-7.355 67.574-51.404 75.199-85.696-1.886-3.989-3.963-7.944-6.184-11.861h-313.9z" clip-rule="evenodd" fill="#2A8FBC" fill-rule="evenodd"/> <path d="m3799.2 26.171c2.402 1.278 4.842 2.548 7.353 3.79 101.35 50.19 124.3 19.18 147.7-3.79h-155.05z" clip-rule="evenodd" fill="#262C6A" fill-rule="evenodd"/> <path d="m3799.2 26.171c2.402 1.278 4.842 2.548 7.353 3.79 101.35 50.19 124.3 19.18 147.7-3.79h-155.05z" clip-rule="evenodd" fill="#1D1D51" fill-rule="evenodd"/> <path d="m3462 143.28c35.532-19.598 46.721 27.382 72.37 40.892 25.677 13.475-31.896 26.991-43.729 54.101-11.868 27.092-44.056 29.487-94.085-0.693-50.03-30.18 2.475-91.126 65.444-94.3z" clip-rule="evenodd" fill="#1771A4" fill-rule="evenodd"/> <path d="m3563.4 279.28c-11.343-0.233-20.591 9.534-20.682 21.713-0.063 12.249 9.058 22.336 20.419 22.561 11.342 0.204 20.59-9.512 20.653-21.761 0.091-12.196-9.048-22.281-20.39-22.513z" clip-rule="evenodd" fill="#1FC0DA" fill-rule="evenodd"/> <path d="m2089.3 432.12c-11.37-0.231-20.618 9.529-20.673 21.76-0.09 12.252 9.049 22.309 20.392 22.54 11.343 0.225 20.591-9.536 20.672-21.74 0.091-12.226-9.066-22.308-20.391-22.56z" clip-rule="evenodd" fill="#1FC0DA" fill-rule="evenodd"/> <path d="m3298.1 2005c22.631-0.41 41.081 18.985 41.208 43.385 0.154 24.38-18.088 44.499-40.691 44.907-22.612 0.444-41.063-18.949-41.235-43.375-0.081-24.353 18.061-44.473 40.718-44.917z" clip-rule="evenodd" fill="#fff" fill-rule="evenodd"/> <path d="m1488.1 212.21c16.184-0.306 29.394 13.587 29.503 31.011 0.104 17.439-12.93 31.835-29.113 32.139-16.152 0.309-29.358-13.582-29.472-31.006-0.108-17.442 12.93-31.838 29.082-32.144z" clip-rule="evenodd" fill="#1FC0DA" fill-rule="evenodd"/> <polygon points="2068.5 2076.7 2073.3 2108.1 2102.5 2112.5 2073.4 2117.7 2069.2 2149.2 2064.5 2117.8 2035.3 2113.3 2064.4 2108.2" clip-rule="evenodd" fill="#fff" fill-rule="evenodd"/> <path d="m1678.9 3425.4s-39.34-0.734-58.453-5.513c-19.121-4.778-60.665-16.185-70.956-21.325-10.29-5.149-44.853-13.237-53.308-14.706-8.454-1.469-49.64 0-53.316 2.203-3.677 2.212-27.943 12.132-27.943 12.132s28.315-45.95 32.358-51.463c4.04-5.513 99.988-117.65 103.66-120.59 3.681-2.946 13.604-15.068 14.343-18.378 0.735-3.318 51.462-119.49 56.98-129.42 5.517-9.928 13.972-23.528 13.972-23.528s248.9-212.86 261.39-215.81c12.498-2.938 96.319 45.588 99.996 52.206 3.677 6.619 20.584 62.497 22.062 73.531 1.469 11.025-8.45 106.98-16.544 145.95-8.088 38.968-6.991 132.72-6.619 134.92 0.367 2.213-1.474 53.313-1.474 53.313s3.495 215.81 7.177 222.24c3.679 6.428-10.3-2.947-10.3-2.947l-60.289-28.306s-71.505-28.859-72.792-28.859-66.912-20.409-66.912-20.409 37.123-113.97 41.901-119.84c4.778-5.885 45.221 8.45 45.221 8.45l32.35 6.256s0.372-10.3-15.808-25.006c-16.175-14.706-49.998-37.128-56.245-38.969-6.257-1.841-97.06-29.412-109.93-28.678s-59.192 0.372-63.235 2.212c-4.044 1.832-14.339 5.513-10.291 13.229 4.044 7.725 24.63 18.387 24.63 18.387l50.365 10.663s-43.384 114.34-43.384 118.75v10.662l-8.61 8.641z" clip-rule="evenodd" fill="#C3ADA7" fill-rule="evenodd"/> <path d="m1738.5 3244c-4.18-0.798-7.354-1.215-9.09-1.124-5.952 0.345-19.054 0.444-31.828 0.644-5.178-1.405-9.366-2.457-11.352-2.457-3.854 0-10.409 1.668-16.135 3.373-1.985 0.181-3.359 0.39-3.921 0.652-1.134 0.517-2.771 1.179-4.438 2.031-1.768 0.607-2.86 1.006-2.86 1.006s8.821-24.706 11.474-38.823c2.647-14.117 54.704-130.59 78.526-158.82 23.823-28.234 83.822-114.7 83.822-114.7-77.643 150.88-59.999 248.82-76.764 254.99-15.358 5.667-16.646 39.467-17.434 53.23z" clip-rule="evenodd" fill="#fff" fill-rule="evenodd"/> <path d="m1678.9 3425.4s-39.34-0.734-58.453-5.513c-19.121-4.778-60.665-16.185-70.956-21.325-2.357-1.179-5.983-2.512-10.281-3.881 10.028-2.466 28.397-7.488 42.124-14.198 19.856-9.701 56.708-136.1 85.825-219.92 29.118-83.821 119.11-183.53 119.11-183.53-6.46 8.16-106.16 88.455-106.16 88.455s32.645-61.763 54.704-88.237c22.059-26.475 155.29-105.88 155.29-105.88s-93.968 121.32-117.35 145.58c-23.379 24.263-99.697 184.41-102.34 193.23-2.117 7.045-11.528 26.438-13.451 40.274-1.899 1.985-2.792 4.552-1.061 7.843 0.426 0.825 1.052 1.687 1.813 2.557 2.452 4.461 11.075 9.847 21.152 14.933 1.043 0.571 1.664 0.897 1.664 0.897l0.213 0.046c17.789 8.768 39.077 16.393 39.077 16.393s1.51-2.91 3.98-7.28l7.095 1.505s-43.384 114.34-43.384 118.75v10.662l-8.607 8.64zm336.95-406.12c-3.354 32.096-8.306 70.203-12.709 91.42-8.088 38.968-6.991 132.72-6.619 134.92 0.367 2.213-1.474 53.313-1.474 53.313s3.495 215.81 7.177 222.24c3.679 6.428-10.3-2.947-10.3-2.947l-60.289-28.306s-71.505-28.859-72.792-28.859-66.912-20.409-66.912-20.409 37.123-113.97 41.901-119.84c4.778-5.885 45.221 8.45 45.221 8.45l32.35 6.256s0.372-10.3-15.808-25.006c-16.175-14.706-49.998-37.128-56.245-38.969-4.651-1.369-56.019-16.955-87.367-24.562 14.416-16.157 38.969-42.405 62.243-34.146 27.354 9.711 75 29.122 75 29.122s22.059 8.822 55.588-56.467c28.849-56.177 62.259-143.04 71.035-166.21z" clip-rule="evenodd" fill="#9E8C87" fill-rule="evenodd"/> <path d="m1495.1 3383.7c-10.467-1.196-48.652 0.245-52.188 2.357-3.677 2.212-27.943 12.132-27.943 12.132s28.315-45.95 32.358-51.463c4.04-5.513 99.988-117.65 103.66-120.59 3.681-2.946 13.604-15.068 14.343-18.378 0.735-3.318 51.462-119.49 56.98-129.42 2.253-4.053 5-8.731 7.457-12.839-4.003 11.732-38.434 113.25-38.434 136.53 0 24.706-39.708 120-45.887 118.23-6.174-1.769-13.237-19.412-28.233-16.765-14.997 2.647-54.709 50.293-54.709 59.115s38.828 19.412 38.828 19.412l-6.232 1.679z" clip-rule="evenodd" fill="#fff" fill-rule="evenodd"/> <path d="m1686.9 2840.5s-46.326 41.172-67.646 48.524c-21.325 7.354-148.53 90.44-163.24 99.997-14.707 9.557-97.793 70.584-97.059 75.734 0.734 5.149 51.1 3.672 51.1 3.672s160.65-20.581 162.86-20.581 63.235 6.981 63.235 6.981l44.114 6.246 187.86-174.62 66.178-50.003s-1.102-12.866-26.099-20.953c-25.002-8.088-136.03-11.76-149.27-6.619-13.232 5.151-72.043 31.626-72.043 31.626z" clip-rule="evenodd" fill="#101829" fill-rule="evenodd"/> <path d="m1928.2 2826.3c-2.453-2.321-5.876-4.797-10.653-7.118-40.746 30.201-255.6 188.29-250.71 188.98 4.887 0.689-180.1-6.156-192.79 1.324-12.688 7.479 221.02-147.79 311.9-184.85l-30.881-2.647s-319.84 191.91-320.73 206.03c81.161-5.712 156.78-3.119 228.53 5.295l265.34-207.01z" clip-rule="evenodd" fill="#3E4451" fill-rule="evenodd"/> <path d="m2595.3 3879s30.001 51.181 37.943 81.183c1.388 5.259 2.457 9.765 3.273 13.646h-58.852c3.526-15.032 8.813-63.947 9.257-70.557 0.435-6.62 8.379-24.272 8.379-24.272z" clip-rule="evenodd" fill="#C29077" fill-rule="evenodd"/> <path d="m1653 3416.7-74.995 136.76s-75 120.89-81.174 129.71c-6.179 8.822-37.065 64.41-38.824 75.88-1.768 11.47-56.037 143.82-56.477 181.32-0.181 15.16-0.362 25.705 0.363 33.502h1175.2c0.897-2.484 1.56-4.986 1.932-7.471 2.647-17.645 5.295-59.115 7.942-64.846 2.638-5.739 34.408-31.325 33.084-57.355-1.323-26.021-21.171-83.378-31.761-97.938-10.59-14.552-45.442-34.853-53.385-40.583-7.942-5.739-22.06-15.005-23.383-19.855-1.324-4.852-50.737-75.889-50.737-75.889s-24.697-34.408-29.993-37.056c-5.295-2.647-8.83-6.175-31.77-2.647-22.938 3.527-144.7 44.118-149.99 44.998-5.295 0.879-148.24 30.881-148.24 30.881l-26.466 4.416s-74.118-36.177-83.385-43.675c-9.262-7.507-54.264-47.21-57.352-51.616-3.087-4.416-33.973-42.36-36.181-51.617-2.203-9.266-6.618-30.002-6.618-30.002s-146.02-61.318-237.78-56.912z" clip-rule="evenodd" fill="#101829" fill-rule="evenodd"/> <path d="m2527.2 3700.1c-7.117-5.087-14.651-10.844-15.604-14.325-1.324-4.852-50.737-75.889-50.737-75.889s-24.697-34.408-29.993-37.056c-5.295-2.647-8.83-6.175-31.77-2.647-22.938 3.527-144.7 44.118-149.99 44.998-5.295 0.879-148.24 30.881-148.24 30.881l-13.383 2.23c5.477 5.976 10.726 10.518 14.706 11.506 13.972 3.49 183.36 55.878 214.79 55.878 24.853 1e-3 144.73-10.915 210.22-15.576z" clip-rule="evenodd" fill="#3E4451" fill-rule="evenodd"/> <path d="m1593.1 3526-15.023 27.399s-75 120.89-81.174 129.71c-6.179 8.822-37.065 64.41-38.824 75.88-1.768 11.47-56.037 143.82-56.477 181.32-0.081 6.773-0.163 12.612-0.163 17.708 38.117-34.59 79.978-71.129 94.176-78.228 2.616-1.314 5.2-1.968 7.743-2.067 4.878-32.948 10.3-63.657 15.214-84.402 10.645-44.961 49.849-181.92 74.528-267.31z" clip-rule="evenodd" fill="#3E4451" fill-rule="evenodd"/> <path d="m1858.2 3279s38.384 28.017 46.326 33.085c7.938 5.067 9.262 23.156 9.262 23.156s-59.781-11.025-64.415-13.673c-4.628-2.647-10.146-5.295-10.146-5.295l18.973-37.273z" clip-rule="evenodd" fill="#5E5350" fill-rule="evenodd"/> <path d="m1746 3248.1-15.808 37.862s-34.559-1.469-51.84-9.185c-17.28-7.725-27.571-18.024-20.219-25.006 7.354-6.98 62.136-8.821 87.867-3.671z" clip-rule="evenodd" fill="#5E5350" fill-rule="evenodd"/> <path d="m2001.5 3206.4s57.716 76.106 59.194 78.31c1.469 2.212 33.084 45.587 33.084 45.587s65.807 58.825 71.319 63.24c5.521 4.406 66.912 51.463 71.327 51.463 4.406 0 6.981-20.219 2.938-31.979-4.043-11.769-32.722-59.931-37.862-65.071-5.149-5.15-31.625-40.81-31.625-40.81s4.226-43.938-3.862-59.006c-8.087-15.078-40.065-62.506-47.419-74.266-7.353-11.769-70.222-81.618-73.902-83.821-3.672-2.213-32.35-26.847-32.35-26.847l-12.134 68.381-4.049 47.065s-1.464 88.6-1.464 92.271c0 3.682 1.455 160.29 1.455 160.29s30.517-68.01 31.985-81.247c1.469-13.229-4.044-49.631-6.247-65.072-2.202-15.439-20.388-78.489-20.388-78.489z" clip-rule="evenodd" fill="#101829" fill-rule="evenodd"/> <path d="m2170.1 3303.4c0.807-10.971 2.476-42.841-4.171-55.226-8.087-15.078-40.065-62.506-47.419-74.266-7.353-11.769-70.222-81.618-73.902-83.821-3.672-2.213-32.35-26.847-32.35-26.847l-1.197 6.755 1.46 26.302 149.11 200.29 8.468 6.81z" clip-rule="evenodd" fill="#3E4451" fill-rule="evenodd"/> <path d="m1889.3 3477.4 24.63 53.675s72.058 5.513 79.777 5.513c7.721 0 15.443 0 14.337-5.513-1.096-5.513-91.907-51.472-118.74-53.675z" clip-rule="evenodd" fill="#5E5350" fill-rule="evenodd"/> <path d="m1653 3421.9-39.707 62.868-48.525-16.184s-81.623-20.953-83.826-21.315c-2.203-0.372-61.399-20.229-66.178-32.359-4.778-12.132 9.565-22.051 30.519-28.678 20.953-6.61 66.54 0.743 66.54 0.743l68.381 21.325 72.796 13.6z" clip-rule="evenodd" fill="#5E5350" fill-rule="evenodd"/> <path d="m2073.5 2485.7s16.103 59.188 31.987 96.243c15.885 37.055 22.259 137.07 40.293 180.29 18.232 43.701-13.519 172.89-63.894 159.56-14.579-3.862-65.96 3.237-77.722-5.439 0 0-36.675-4.234-38.384-26.031-23.238-15.595-30.455 1.27-77.793-47.056-6.242-6.365-55.148-12.503-62.646-23.528-7.502-11.034-37.943 22.06-68.825 7.942-30.881-14.126-59.115 27.354-79.41 24.707-20.292-2.656-37.94-15.006-37.94-15.006s-25.146 3.527-28.673-0.879c-3.536-4.416-30.899-15.885-26.484-52.062 4.411-36.176 48.53-113.82 59.999-126.17 11.47-12.349 48.529-54.709 49.409-70.585 0.884-15.885 15.001-70.593 15.001-70.593s38.819-93.523 112.06-120.88c73.231-27.354 114.7-20.291 129.7-15.875 14.997 4.406 51.178 26.465 66.176 39.703 14.995 13.23 51.834 53.748 57.147 65.662z" clip-rule="evenodd" fill="#A25A48" fill-rule="evenodd"/> <path d="m1608.2 2834.6c-7.494-5.621-28.08-18.342-24.208-50.085 4.411-36.176 48.53-113.82 59.999-126.17 11.47-12.349 48.529-54.709 49.409-70.585 0.884-15.885 15.001-70.593 15.001-70.593s38.819-93.523 112.06-120.88c73.231-27.354 114.7-20.291 129.7-15.875 0.885 0.254 1.846 0.58 2.865 0.961-27.989 0.462-73.812 3.826-107.35 19.313-51.617 23.817-81.179 67.057-82.503 72.787-1.323 5.739-26.025 75.443-45.002 105-18.968 29.558-108.09 141.17-112.94 176.47-3.654 26.565-7.553 56.884 2.974 79.66z" clip-rule="evenodd" fill="#fff" fill-rule="evenodd"/> <path d="m2073.5 2485.7s16.103 59.188 31.987 96.243c15.885 37.055 22.259 137.07 40.293 180.29 18.232 43.701-13.519 172.89-63.894 159.56-14.579-3.862-65.96 3.237-77.722-5.439 0 0-36.675-4.234-38.384-26.031-23.238-15.595-30.455 1.27-77.793-47.056-6.242-6.365-55.148-12.503-62.646-23.528-7.502-11.034-37.943 22.06-68.825 7.942-30.881-14.126-59.115 27.354-79.41 24.707-20.292-2.656-37.94-15.006-37.94-15.006s-9.37 1.314-17.471 1.342c-22.871-108.18 151.46-284.2 165.78-300.9 15.88-18.532 12.354 2.647 4.411 37.935-7.942 35.297 58.235-65.289 81.179-78.526 22.943-13.229-14.122 44.118-14.122 67.058 0 22.938 33.529-30.882 40.592-42.351 7.059-11.47 37.939 172.94 46.762 199.41 8.826 26.466 17.648-184.42 29.997-173.83 12.354 10.59 23.827 89.996 36.174 135 12.358 44.998 22.06-91.764 26.475-102.35 4.407-10.59-18.867 19.675 38.824 62.642 52.043 38.77-29.612-170.3-100.22-249.31 14.575 8.405 30.19 18.932 38.813 26.539 14.994 13.228 51.833 53.746 57.146 65.66z" clip-rule="evenodd" fill="#8C493B" fill-rule="evenodd"/> <path d="m1747.6 3250-24.267 59.932-36.035 92.28s-1.47 19.848-7.354 28.669c-5.885 8.831-27.205 41.916-29.412 52.94-2.203 11.034-33.103 249.26-33.103 249.26s-13.972 103.68-15.441 111.77c-1.469 8.078-8.831 46.313-17.653 61.754-8.822 15.44-32.35 54.418-34.563 63.975-0.227 0.997-0.499 2.094-0.798 3.264h228.11c-6.582-3.155-13.26-7.108-18.487-11.352-11.769-9.565-61.032-41.915-68.381-61.028-7.353-19.121-8.822-27.943-8.822-34.562s34.554-133.82 34.554-133.82l33.084-130.51 22.06-70.584s17.281-54.047 16.547-65.444c-0.734-11.396-1.841-24.996 1.102-35.659 2.942-10.662 16.547-36.03 16.547-36.03l51.83-113.61c0-2e-3 -55.879-26.839-109.52-31.246z" clip-rule="evenodd" fill="#DDB9A0" fill-rule="evenodd"/> <path d="m1747.6 3250-5.29 13.065c13.474 9.066 56.041 39.885 51.576 64.428-5.295 29.123-24.702 104.11-34.408 133.24-9.706 29.113-105.88 376.76-110.29 401.46-4.411 24.707 4.411 38.823 22.055 61.762 12.648 16.447 26.203 34.699 29.616 49.895h76.229c-6.582-3.155-13.26-7.108-18.487-11.352-11.769-9.565-61.032-41.915-68.381-61.028-7.353-19.121-8.822-27.943-8.822-34.562s34.554-133.82 34.554-133.82l33.084-130.51 22.06-70.584s17.281-54.047 16.547-65.444c-0.734-11.396-1.841-24.996 1.102-35.659 2.942-10.662 16.547-36.03 16.547-36.03l51.83-113.61c-3e-3 -1e-3 -55.882-26.838-109.52-31.245z" clip-rule="evenodd" fill="#C29077" fill-rule="evenodd"/> <path d="m1741.8 3264.2-18.51 45.724-36.035 92.28s-1.47 19.848-7.354 28.669c-5.885 8.831-27.205 41.916-29.412 52.94-2.203 11.034-33.103 249.26-33.103 249.26s-3.387 25.143-7 51.626c8.188-8.831 18.41-21.252 26.402-35.46 15.881-28.233 37.056-117.35 47.646-145.58 10.586-28.233 53.834-190.58 48.543-198.52-5.295-7.942-35.292 3.527-35.292 3.527s15.881-19.412 20.291-37.056c4.411-17.645 30.886-112.94 30.886-112.94l-7.062 5.54z" clip-rule="evenodd" fill="#fff" fill-rule="evenodd"/> <path d="m2006.2 2910.8c9.847 18.478 17.29 39.187 18.242 60.438 1.896 42.677-2.275 89.77-13.092 134.92-9.872 41.217-25.276 80.848-46.655 114.09-1.75 2.729-5.381 3.527-8.11 1.777-2.725-1.759-3.522-5.386-1.768-8.114 20.658-32.133 35.563-70.503 45.129-110.46 10.561-44.056 14.623-90.023 12.773-131.7-0.871-19.603-7.861-38.842-17.116-56.087 3.161-1.396 6.977-3.155 10.597-4.859z"/> <path d="m1993.2 3156.8c1.065-3.056 4.406-4.67 7.467-3.608 3.06 1.069 4.671 4.415 3.608 7.471-0.073 0.208-25.637 72.66-32.953 103.39-7.453 31.334-28.271 77.421-28.329 77.548-1.029 2.248-3.3 3.536-5.631 3.418-0.158 0-61.087-4.099-95.976-20.781-2.919-1.396-4.152-4.896-2.756-7.815s4.896-4.152 7.811-2.756c27.409 13.11 74.579 18.359 87.526 19.366 4.973-11.352 19.91-46.467 25.912-71.69 7.391-31.037 33.249-104.33 33.321-104.54z"/> <path d="m1910.6 3319c1.383 2.929 0.127 6.429-2.802 7.815-2.934 1.379-6.433 0.127-7.811-2.801-0.055-0.118-17.943-40.094-107.81-61.491-49.468-11.777-87.902-14.869-110.94-12.357-7.525 0.815-13.188 2.194-16.823 4.017-2.094 1.052-3.182 1.94-3.173 2.611 9e-3 0.317 0.194 0.789 0.571 1.414 9.185 15.305 62.642 21.416 62.705 21.406 3.232-0.145 5.979 2.349 6.129 5.586 0.154 3.236-2.348 5.983-5.58 6.138-0.077 0-60.452-5.667-73.322-27.118-1.442-2.403-2.181-4.824-2.222-7.244-0.104-5.549 3.214-10.047 9.651-13.274 4.9-2.448 11.918-4.233 20.826-5.204 24.208-2.639 64.093 0.489 114.89 12.585 95.42 22.711 115.66 67.79 115.72 67.917z"/> <path d="m1660.8 3253.8c-1.138 3.038-4.524 4.57-7.558 3.428-3.032-1.143-4.564-4.524-3.427-7.562 0.19-0.499 54.84-173.94 130.72-251.3 2.268-2.313 5.984-2.34 8.297-0.073 2.307 2.276 2.334 5.984 0.063 8.296-74.116 75.571-127.9 246.72-128.09 247.21z"/> <path d="m1628.8 3054.7c1.564-2.838 5.132-3.88 7.975-2.321 2.838 1.56 3.88 5.132 2.321 7.979-0.15 0.264-51.862 94.23-61.971 131.78-10.272 38.161-24.888 105.38-24.934 105.57-0.671 3.174-3.79 5.204-6.958 4.533-3.169-0.671-5.2-3.79-4.529-6.963 0.045-0.199 14.756-67.883 25.069-106.18 10.481-38.922 62.878-134.12 63.027-134.4z"/> <path d="m1560.9 3206.6c2.145-2.43 5.848-2.647 8.273-0.508 2.421 2.14 2.647 5.848 0.503 8.269-0.412 0.472-145.43 164.14-148.13 184.37-0.417 3.209-3.364 5.476-6.573 5.059-3.21-0.417-5.477-3.363-5.055-6.573 3.183-23.873 150.56-190.15 150.98-190.62z"/> <path d="m1615.1 3477.7c3.006 1.206 4.466 4.624 3.264 7.634-1.206 3.001-4.62 4.461-7.629 3.255-5.848-2.339-22.975-6.899-44.717-12.702-56.132-14.96-142.3-37.926-154.83-56.023-1.868-2.692-3.01-5.349-3.527-7.933-1.383-6.964 1.546-12.82 7.263-17.672 4.678-3.971 11.378-7.226 18.944-9.782 15.387-5.214 34.935-7.798 47.877-7.798 14.461 0 46.458 9.883 77.511 19.467 28.415 8.776 56.019 17.299 66.604 17.299 24.036 0 52.705 6.002 52.786 6.021 3.174 0.644 5.223 3.744 4.57 6.918-0.645 3.164-3.745 5.213-6.914 4.569-0.077-0.018-27.422-5.748-50.442-5.748-12.249 0-40.732-8.795-70.049-17.844-30.178-9.312-61.273-18.922-74.066-18.922-11.968 0-29.993 2.375-44.109 7.153-6.274 2.131-11.655 4.679-15.133 7.626-2.43 2.066-3.744 4.252-3.309 6.464 0.208 1.043 0.744 2.212 1.641 3.519 10.064 14.524 93.691 36.819 148.18 51.335 22.114 5.901 39.55 10.544 46.091 13.164z"/> <path d="m1797.5 3449c-3.083-1.006-4.769-4.315-3.767-7.398 1.001-3.083 4.315-4.778 7.398-3.771 0.263 0.081 92.022 30.183 165.12 60.457 25.627 10.607 38.477 18.913 43.581 25.187 3.437 4.217 4.207 8.151 3.11 11.732-1.062 3.509-3.79 6.021-7.453 7.716-6.186 2.856-16.182 3.527-23.113 2.63-18.175-2.376-70.108-10.418-70.258-10.445-3.215-0.48-5.427-3.473-4.941-6.682 0.48-3.21 3.477-5.422 6.687-4.941 0.154 0.018 54.382 8.396 70.031 10.436 5.204 0.68 12.471 0.281 16.678-1.659 0.73-0.336 1.143-0.39 1.161-0.453 0.036-0.137-0.345-0.127-0.997-0.935-4.021-4.932-15.354-11.977-38.946-21.741-72.488-30.032-164.03-60.051-164.29-60.133z"/> <path d="m1993.8 3126.9c0.09-3.237 2.783-5.785 6.02-5.703 3.237 0.09 5.792 2.792 5.701 6.02-0.019 0.662-6.975 229.49-6.975 265.41 0 34.943 14.301 133.6 14.346 133.88 0.453 3.21-1.777 6.184-4.986 6.637-3.21 0.463-6.19-1.768-6.644-4.986-0.041-0.281-14.48-99.879-14.48-135.53 0-34.655 7-265.07 7.018-265.73z"/> <path d="m2009.8 3066.6c-2.394-2.167-2.575-5.876-0.408-8.27 2.167-2.402 5.875-2.584 8.269-0.417 0.264 0.236 91.293 82.48 129.96 144.94 39.431 63.693 30.654 109.3 30.627 109.43-0.58 3.192-3.636 5.296-6.827 4.715-3.183-0.58-5.286-3.645-4.706-6.827 0.019-0.117 7.961-41.326-29.067-101.16-37.81-61.055-127.59-142.18-127.85-142.41z"/> <path d="m2114.3 3243.1c-1.841-2.666-1.17-6.319 1.496-8.16 2.665-1.841 6.319-1.17 8.16 1.496 0.117 0.172 42.622 61.735 83.567 112.91 25.359 31.697 36.693 63.64 38.814 82 0.58 5.014 0.49 9.229-0.163 12.385-1.052 4.996-3.617 8.105-7.534 8.931-2.729 0.571-5.576-0.163-8.414-2.375-2.476-1.923-4.859-3.709-8.241-6.247-30.999-23.293-127.9-96.099-151.91-133.45-26.293-40.9-77.087-108.72-77.232-108.92-1.94-2.603-1.41-6.283 1.192-8.224s6.288-1.405 8.228 1.196c0.146 0.19 51.048 68.146 77.695 109.6 22.902 35.632 118.48 107.45 149.06 130.42l5.93 4.461c0.1-1.732 9e-3 -3.899-0.281-6.447-1.939-16.818-12.521-46.313-36.294-76.023-41.407-51.754-83.948-113.38-84.075-113.55z"/> <path d="m1999.8 3217.7c-0.925-3.109 0.843-6.383 3.953-7.308 3.107-0.925 6.38 0.844 7.305 3.953 0.082 0.272 28.787 95.608 22.64 127.9-5.983 31.389-29.813 91.492-29.886 91.664-1.188 3.011-4.597 4.479-7.603 3.282-3.006-1.188-4.479-4.597-3.287-7.598 0.068-0.172 23.458-59.143 29.233-89.516 5.612-29.465-22.274-122.12-22.355-122.38z"/> <path d="m1739.4 3250.5c2.751-7.226 13.735-3.046 10.988 4.18-0.108 0.281-50.66 125.17-59.441 152.98-0.979 3.101-4.279 4.814-7.38 3.844-3.092-0.979-4.814-4.289-3.835-7.38 8.858-28.061 59.564-153.35 59.668-153.63z"/> <path d="m1695.5 3397.8c2.058-2.503 5.748-2.865 8.25-0.807 2.498 2.058 2.856 5.748 0.803 8.25-0.113 0.137-38.987 47.646-51.885 87.775-5.748 17.879-14.017 91.374-22.929 170.55-11.048 98.156-23.07 204.97-33.139 228.47-6.414 14.96-15.513 32.032-24.194 48.316-6.496 12.177-12.734 23.882-17.376 33.511h-12.562c4.905-11.47 12.099-24.961 19.598-39.023 8.513-15.976 17.444-32.73 23.732-47.4 9.393-21.924 21.316-127.84 32.273-225.16 8.976-79.76 17.308-153.8 23.428-172.85 13.572-42.234 53.882-91.502 54.001-91.638z"/> <path d="m1603.7 3973.8c4.778-3.672 10.177-5.566 15.576-2.874 1.501 0.753 2.988 1.731 4.447 2.874h-20.023z"/> <path d="m1849.1 3282.2c1.297-2.965 4.751-4.325 7.726-3.028 2.969 1.297 4.324 4.751 3.032 7.725-0.158 0.354-61.776 130.42-64.614 154.57-1.627 13.836-6.333 38.651-12.666 65.498-5.259 22.286-11.695 46.177-18.486 66.55-8.687 26.039-35.537 126.07-54.546 206.6-12.729 53.966-22.005 98.528-19.819 104.11 3.717 9.502 26.298 37.028 53.629 60.13 14.852 12.549 30.963 23.629 45.914 29.449h-25.632c-9.492-5.866-18.931-12.938-27.871-20.49-28.705-24.263-52.795-54.119-56.975-64.81-3.183-8.114 6.11-55.125 19.312-111.05 19.027-80.621 46.06-181.21 54.863-207.63 6.587-19.756 12.929-43.329 18.165-65.534 6.242-26.475 10.866-50.764 12.444-64.165 3.036-25.858 65.369-157.57 65.524-157.93z"/> <path d="m1646.2 3420.9c1.65-2.792 5.25-3.717 8.043-2.076 2.792 1.65 3.717 5.259 2.066 8.052-0.249 0.417-86.949 147.85-147.27 244.96-29.462 47.428-58.947 118.28-78.839 180.6-18.038 56.494-28.52 105.24-23.941 121.38h-11.043c-3.155-23.247 6.678-71.237 23.814-124.92 20.169-63.177 50.093-135.07 80.037-183.27 60.256-97.005 146.88-244.31 147.13-244.73z"/> <path d="m1884.1 3477.6c-0.734-3.155 1.233-6.319 4.389-7.054 3.164-0.734 6.319 1.233 7.054 4.388 15.686 67.049 81.428 121.5 161.64 161.13 108.43 53.575 242.79 79.833 317.03 73.894 3.237-0.254 6.065 2.167 6.319 5.404 0.254 3.236-2.167 6.065-5.403 6.319-75.88 6.065-212.87-20.608-323.14-75.091-83.066-41.045-151.28-98.002-167.89-168.99z"/> <path d="m2080 3657.1c-3.164 0.689-6.292-1.306-6.99-4.461-0.698-3.164 1.297-6.292 4.461-6.99 0.607-0.137 211.65-47.265 263.04-63.413 9.629-3.028 17.771-5.767 25.16-8.26 36.675-12.357 56.468-19.021 74.674-2.212 12.611 11.642 39.631 52.541 60.466 84.085 11.913 18.033 21.778 32.966 25.269 36.956 3.056 3.499 10.327 7.57 18.805 12.313 16.211 9.075 36.448 20.408 46.603 38.696 8.532 15.359 19.983 41.398 27.137 64.827 5.612 18.369 8.623 35.469 5.748 45.515-5.403 18.922-25.359 41.87-30.835 47.927-0.825 9.828-4.688 53.031-10.917 71.727h-12.63c0.236-0.489 0.463-0.979 0.662-1.46 6.973-16.746 11.315-73.05 11.324-73.204 0.108-1.278 0.626-2.529 1.568-3.536 0.063-0.073 24.036-25.469 29.521-44.672 2.194-7.671-0.635-22.468-5.658-38.896-6.908-22.612-17.942-47.727-26.166-62.523-8.522-15.351-27.173-25.786-42.105-34.146-9.385-5.259-17.444-9.765-21.888-14.842-4.07-4.66-14.107-19.856-26.221-38.198-20.5-31.026-47.065-71.255-58.634-81.927-13.12-12.113-30.601-6.229-63.005 4.696-7.824 2.639-16.438 5.54-25.387 8.351-51.553 16.201-263.4 63.511-264 63.647z"/> <path d="m2249.5 3750.9c-3.119-0.88-4.941-4.117-4.062-7.244 0.87-3.119 4.116-4.941 7.235-4.063 0.752 0.209 261.52 73.876 300.73 107.05 2.475 2.094 2.783 5.803 0.688 8.269-2.094 2.476-5.802 2.784-8.277 0.689-37.254-31.525-295.57-104.49-296.32-104.7z"/> <path d="m2012.5 3701.5c-2.657-1.85-3.318-5.513-1.469-8.179 1.858-2.665 5.521-3.327 8.178-1.469 1.016 0.698 329.54 229.9 451.63 281.97h-27.681c-137.85-68.037-429.7-271.65-430.66-272.32z"/> <path d="m1851.1 3671.1c-2.122-2.448-1.85-6.156 0.599-8.27 2.447-2.121 6.151-1.85 8.269 0.599 0.644 0.743 206.86 240.89 325.96 310.39h-21.95c-122.95-81.518-312.27-302-312.88-302.72z"/> <path d="m1824.7 3703.1c-0.317-3.219 2.04-6.093 5.259-6.41 3.224-0.317 6.098 2.04 6.41 5.259 0.059 0.563 18.99 195.65 57.927 256.22 1.755 2.729 0.962 6.365-1.768 8.115-2.725 1.75-6.355 0.952-8.11-1.768-40.469-62.961-59.664-260.85-59.718-261.42z"/> <path d="m2598.9 3893.6c-1.56-2.838-0.518-6.41 2.32-7.97s6.41-0.525 7.979 2.321c0.081 0.163 25.631 46.34 34.508 85.853h-11.95c-8.849-36.783-32.767-80.05-32.857-80.204z"/> <path d="m1900.2 2862.1c3.209-0.453 6.188 1.777 6.641 4.987 0.454 3.209-1.776 6.184-4.986 6.637-28.365 4.134-111 90.966-176.27 153.34-25.205 24.081-42.45 40.564-45.896 40.945-2.58 0.29-12.911-1.505-27.871-4.089-40.157-6.964-115.11-19.956-142.17-14.235-3.174 0.662-6.283-1.378-6.94-4.542-0.658-3.174 1.378-6.283 4.547-6.945 29.267-6.192 105.63 7.045 146.54 14.135 14.017 2.43 23.7 4.107 24.603 4.008 0.503-0.055 15.59-15.322 39.1-37.781 66.204-63.268 150.6-151.78 182.7-156.46z"/> <path d="m1575.7 3046.8c3.209-0.453 6.188 1.777 6.642 4.986 0.453 3.21-1.777 6.192-4.987 6.646-3.209 0.453-49.536 5.295-90.327 9.193-24.032 2.303-46.095 4.271-56.209 4.823l-0.398 0.019c-28.497 1.541-70.489 3.799-76.024-3.944-0.168-0.244-0.317-0.489-0.449-0.752-0.267-0.508-0.458-1.034-0.566-1.578-0.544-2.72 0.897-5.386 3.323-6.492 3.313-3.916 9.017-8.967 16.655-14.859 11.537-8.904 27.912-20.944 47.097-34.635 80.621-57.565 211.67-144.87 244.66-152.99 3.146-0.771 6.329 1.151 7.104 4.298 0.774 3.146-1.147 6.328-4.293 7.099-31.457 7.743-160.79 94.122-240.68 151.15-19.113 13.646-35.36 25.587-46.725 34.363-6.859 5.285-12.145 7.135-14.443 8.296 8.632 1.297 40.904-0.436 63.698-1.668l0.417-0.027c10.068-0.544 31.933-2.494 55.724-4.77 40.399-3.863 86.508-8.686 89.772-9.157z"/> <path d="m1967.7 2382.6c2.893 1.46 4.053 4.996 2.593 7.889-1.459 2.892-4.986 4.053-7.879 2.593-0.163-0.082-56.295-29.567-140.43 10.363-80.902 38.388-104.09 108.76-116 144.91l-1.506 4.551c-1.015 3.083-4.338 4.761-7.425 3.745-3.083-1.016-4.756-4.334-3.745-7.417l1.51-4.561c12.439-37.763 36.666-111.28 122.16-151.85 89.385-42.413 150.55-10.317 150.74-10.227z"/> <path d="m1757.8 2466.6c0.367-3.219 3.278-5.54 6.501-5.169 3.224 0.363 5.535 3.283 5.173 6.501-0.019 0.137-4.602 45.778-92.417 155.93-42.097 52.795-68.041 101.61-78.699 138.91-4.511 15.794-6.251 29.367-5.29 40.12 0.879 9.828 4.007 17.127 9.315 21.361 1.977 1.577 4.307 2.765 6.981 3.526 3.124 0.889 4.933 4.144 4.044 7.263s-4.139 4.933-7.263 4.044c-4.175-1.188-7.87-3.092-11.07-5.64-7.915-6.311-12.507-16.401-13.682-29.549-1.093-12.213 0.771-27.218 5.658-44.336 11.043-38.643 37.695-88.926 80.812-143.01 85.702-107.49 89.923-149.83 89.937-149.95z"/> <path d="m1769.2 2572.6c1.917-2.611 5.594-3.174 8.205-1.261s3.178 5.595 1.261 8.205c-0.444 0.607-156.69 213.33-136.26 254.19 1.446 2.893 0.271 6.42-2.62 7.861-2.893 1.45-6.41 0.271-7.856-2.62-23.678-47.355 136.81-265.74 137.26-266.38z"/> <path d="m1975.5 2399.6c-2.843-1.551-3.895-5.113-2.349-7.951 1.551-2.838 5.114-3.89 7.952-2.349 0.208 0.118 72.703 40.039 83.593 9.792 10.961-30.455-3.8-33.465-3.836-33.475-3.164-0.697-5.158-3.826-4.461-6.99 0.698-3.154 3.826-5.149 6.991-4.461 0.072 0.019 27.844 5.813 12.34 48.879-15.585 43.286-99.99-3.308-100.23-3.445z"/> <path d="m2008.5 2421.9c-2.558-1.977-3.038-5.667-1.052-8.224 1.977-2.565 5.666-3.037 8.224-1.061 0.417 0.326 119.48 116.13 131.61 193.45 12.021 76.641 4.062 94.248 4.043 94.303-1.232 2.992-4.66 4.425-7.652 3.191-2.991-1.233-4.424-4.66-3.191-7.652 0.019-0.045 6.728-14.697-4.778-88.047-11.406-72.669-126.8-185.64-127.21-185.96z"/> <path d="m2076.5 2526.9c-1.232-2.992 0.199-6.42 3.191-7.652 2.992-1.233 6.42 0.199 7.652 3.191 0.254 0.607 66.641 204.05 66.641 284.58 0 41.055-7.426 69.823-21.279 87.775-14.453 18.723-36.839 34.498-63.231 31.298-3.228-0.381-5.531-3.3-5.15-6.528 0.381-3.219 3.301-5.521 6.528-5.149 22.123 2.684 40.918-11.688 52.568-26.792 12.24-15.858 18.796-42.242 18.796-80.604 0-78.281-65.471-279.52-65.716-280.12z"/> <path d="m2023.3 2546.7c-0.789-3.146 1.124-6.338 4.271-7.127 3.146-0.779 6.337 1.134 7.126 4.28 1.777 7.063 3.808 14.778 6.102 23.491 29.286 103.85 63.794 327.38-41.469 355.15-3.056 1.079-6.41-0.526-7.489-3.591-1.078-3.056 0.526-6.41 3.586-7.489 94.351-30.682 64.367-242.4 34.021-341.09-2.44-9.256-4.588-17.426-6.148-23.627z"/> <path d="m1974.9 2571.9c-0.915-3.109 0.866-6.374 3.972-7.28 3.109-0.916 6.374 0.861 7.28 3.971 0.19 0.626 50.245 256.84-12.357 324.03-2.208 2.375-5.921 2.512-8.297 0.299-2.375-2.212-2.507-5.92-0.299-8.296 57.979-62.216 9.878-312.11 9.701-312.72z"/> <path d="m1892.4 2555c-0.535-3.2 1.627-6.229 4.823-6.764 3.2-0.525 6.229 1.632 6.76 4.833 0.1 0.598 30.559 228.11-16.475 293.35-1.891 2.62-5.554 3.218-8.183 1.332-2.625-1.886-3.219-5.558-1.333-8.178 44.142-61.227 14.507-283.99 14.408-284.58z"/> <path d="m1852 2518.7c1.687-2.766 5.3-3.646 8.065-1.95 2.77 1.687 3.64 5.295 1.953 8.061-0.462 0.762-162.86 263.85-102.25 296.18 2.855 1.514 3.935 5.068 2.416 7.924-1.523 2.856-5.077 3.936-7.934 2.412-71.726-38.254 97.268-311.84 97.749-312.63z"/> <path d="m1855.5 2593.4c0.172-3.237 2.946-5.712 6.179-5.54 3.232 0.182 5.717 2.947 5.535 6.184-0.027 0.535-10.372 185.32-36.185 226.32-1.728 2.747-5.35 3.563-8.088 1.841-2.747-1.723-3.563-5.35-1.841-8.088 24.183-38.416 34.368-220.2 34.4-220.72z"/> <path d="m1706.8 3206.8c-3.146 0.753-6.311-1.197-7.059-4.343s1.197-6.302 4.343-7.054c0.35-0.082 120.88-30.211 220.29 73.712 2.23 2.33 2.149 6.038-0.181 8.269-2.34 2.239-6.043 2.158-8.278-0.181-94.701-99.009-208.79-70.485-209.11-70.403z"/> </svg>