<?xml version="1.0" encoding="utf-8"?>
<!-- Generator: Adobe Illustrator 25.2.3, SVG Export Plug-In . SVG Version: 6.00 Build 0)  -->
<svg version="1.1" xmlns="http://www.w3.org/2000/svg" xmlns:xlink="http://www.w3.org/1999/xlink" x="0px" y="0px"
	 viewBox="0 0 739.9 138.5" style="enable-background:new 0 0 739.9 138.5;" xml:space="preserve">
<style type="text/css">
	.st0{display:none;}
	.st1{display:inline;}
	.st2{display:inline;fill:#75C044;}
	.st3{fill:#231F20;}
	.st4{fill:#75C043;}
</style>
<g id="Layer_1" class="st0">
	<path class="st1" d="M658.2,96c-12.6,0-21.9-9.8-21.9-22.1l0,0v-0.1c0-12.1,9.3-22.2,22.1-22.2l0,0c7.8,0,12.6,2.9,17,6.8l0,0
		l0.8,0.7l-3.7,3.7l-0.7-0.7c-3.6-3.4-7.5-5.7-13.5-5.8l0,0c-9.5,0-16.7,7.5-16.7,17.3l0,0v0.1c0,9.9,7.3,17.4,16.8,17.5l0,0
		c5.8,0,9.6-2.1,13.8-6.1l0,0l0.7-0.7l3.6,3.4l-0.8,0.7C671.1,93,666,96,658.2,96L658.2,96C658.3,96,658.2,96,658.2,96L658.2,96
		L658.2,96z M487.6,96c-12.6,0-21.9-9.8-21.9-22.1l0,0v-0.1c0-12.1,9.3-22.2,22.1-22.2l0,0c7.8,0,12.6,2.9,17,6.8l0,0l0.8,0.7
		l-3.7,3.7l-0.7-0.7c-3.6-3.4-7.5-5.7-13.5-5.8l0,0c-9.5,0-16.7,7.5-16.7,17.3l0,0v0.1c0,9.9,7.3,17.4,16.8,17.5l0,0
		c5.8,0,9.6-2.1,13.8-6.1l0,0l0.7-0.7l3.6,3.4l-0.8,0.7C500.5,93,495.4,96,487.6,96L487.6,96C487.7,96,487.7,96,487.6,96L487.6,96
		L487.6,96z M166.8,96c-5.3,0-9.9-1.6-13.1-4.8l0,0c-3.3-3.2-5.1-7.9-5.1-13.9l0,0v-25h5.1V77c0.1,9.3,4.8,14.1,13.2,14.2l0,0
		c8.1-0.1,12.9-4.4,13-14l0,0v-25h5.1v24.6c0,6.1-1.8,10.9-5.1,14.2l0,0C176.7,94.3,172.1,96,166.8,96L166.8,96
		C166.8,96,166.8,96,166.8,96L166.8,96L166.8,96z M441,95.9C441,95.9,441,95.9,441,95.9L441,95.9c-7,0-12.5-2.3-17.6-6.8l0,0
		l-0.8-0.7l3.4-3.8l0.7,0.7c4.5,4.1,8.4,5.8,14.4,5.8l0,0c6,0,9.6-3.2,9.6-7.1l0,0v-0.1c-0.1-3.8-1.6-5.7-11.1-7.8l0,0
		c-10.2-1.9-15.1-5.7-15-12.5l0,0v-0.1c0-6.8,6.4-11.8,14.5-11.8l0,0c6.3,0,10.7,1.7,15,5.2l0,0l0.8,0.6l-3.3,4l-0.8-0.7
		c-3.8-3.2-7.5-4.4-11.9-4.4l0,0c-5.9,0-9.3,3.2-9.3,6.7l0,0v0.1c0.1,3.8,1.5,5.9,11.5,8l0,0c9.8,1.9,14.7,5.7,14.6,12.3l0,0v0.1
		C456,91,449.5,95.9,441,95.9L441,95.9L441,95.9z M689.8,95.3h-1v-43h32v1v3.8H694v14.1h21v1V76L694,76v14.5h27.1v1v3.8H689.8
		L689.8,95.3z M622.7,95.3h-2.8l-28.2-34.6v34.6h-1h-3h-1v-43h1h3.4l27.6,33.9V52.3h5v43H622.7L622.7,95.3z M542.6,95.3h-1v-43h32v1
		v3.8h-26.8v14.1h21v1V76l-21,0v14.5h27.1v1v3.8H542.6L542.6,95.3z M523.7,95.3h-3.1h-1v-43h5.1v43H523.7L523.7,95.3z M385.4,95.3
		h-2.8l-28.2-34.6v34.6h-1h-3h-1v-43h1h3.4l27.6,33.9V52.3h5v43H385.4L385.4,95.3z M332.7,95.3l-5.4-11.5h-23.6l-5.4,11.5h-0.6h-3.2
		h-1.6L313.5,52h0.6h3.6l20.6,43.3H332.7L332.7,95.3z M325,79.1l-9.5-20.4L306,79.1H325L325,79.1z M250.5,95.3h-1v-43h18.4
		c4.9,0,9,1.4,11.6,3.9l0,0c1.9,1.9,3,4.3,3,7.2l0,0v0.1c0,4.8-2.6,7.8-5.4,9.5l0,0c4.2,1.6,7.8,4.7,7.8,10l0,0v0.1
		c0,7.6-6.8,12.2-16.1,12.2l0,0H250.5L250.5,95.3z M231.4,95.3l-13.4-17h-12.3v17h-1h-3.1h-1v-43h18.7c5.4,0,9.8,1.6,12.5,4.3l0,0
		c2.2,2.1,3.5,5.1,3.5,8.3l0,0v0.1c0,6.9-5,11.1-11.5,12.4l0,0L238,95.3H231.4L231.4,95.3z M268.9,90.5c7-0.1,10.8-3,10.8-7.4l0,0
		V83c0-4.2-3.6-6.9-11.8-7l0,0h-13.3v14.5H268.9L268.9,90.5L268.9,90.5z M218.9,73.5c6.8-0.1,11.3-3.2,11.3-8.4l0,0v-0.1
		c0-4.8-3.7-7.9-11.1-8l0,0h-13.4v16.5H218.9L218.9,73.5L218.9,73.5z M267.5,71.2c6.1-0.1,9.8-2.7,9.8-7.4l0,0v-0.1
		c0-3.8-3-6.5-9.5-6.6l0,0h-13.2v14.1H267.5L267.5,71.2L267.5,71.2z"/>
	<polygon class="st2" points="27,43.1 56.8,54.6 56.8,90.5 27,78.9 27,43.1 	"/>
	<polygon class="st1" points="1.1,105.8 1.1,45.7 43.9,62.2 43.9,102.8 41.8,102.8 41.8,63.7 3.2,48.8 3.2,104.4 27.4,113.7 
		26.7,115.7 1.1,105.8 	"/>
	<polygon class="st1" points="1.1,105.8 1.1,45.7 43.9,62.2 43.9,102.8 41.8,102.8 41.8,63.7 3.2,48.8 3.2,104.4 27.4,113.7 
		26.7,115.7 1.1,105.8 	"/>
	<polygon class="st1" points="48.6,124.3 49.3,122.3 78.6,133.6 78.6,113.4 48.1,101.7 48.1,101.7 48.9,99.7 80.8,111.9 80.8,136.7 
		48.6,124.3 	"/>
	<polygon class="st1" points="48.6,124.3 49.3,122.3 78.6,133.6 78.6,113.4 48.1,101.7 48.1,101.7 48.9,99.7 80.8,111.9 80.8,136.7 
		48.6,124.3 	"/>
	<path class="st1" d="M26,107.3l82.8-27.8L82.3,69.2v-57L16,34.5v52.5l27,10.5l-0.8,2L13.9,88.4V32.9l69-23.2l1.5,0.9v57l28.1,11
		v24.2L26,132V107.3L26,107.3z M28.2,108.8v20.2l82.3-27.7V81.2L28.2,108.8L28.2,108.8z"/>
	<path class="st1" d="M26,107.3l82.8-27.8L82.3,69.2v-57L16,34.5v52.5l27,10.5l-0.8,2L13.9,88.4V32.9l69-23.2l1.5,0.9v57l28.1,11
		v24.2L26,132V107.3L26,107.3z M28.2,108.8v20.2l82.3-27.7V81.2L28.2,108.8L28.2,108.8z"/>
	<polygon class="st1" points="64.7,84.4 64.7,2.1 109.5,19.4 109.5,68.1 88.1,75.2 88.1,87.9 86,87.9 86,73.6 107.4,66.6 
		107.4,20.9 66.9,5.2 66.9,83 81.9,88.9 81.1,90.8 64.7,84.4 	"/>
	<polygon class="st1" points="64.7,84.4 64.7,2.1 109.5,19.4 109.5,68.1 88.1,75.2 88.1,87.9 86,87.9 86,73.6 107.4,66.6 
		107.4,20.9 66.9,5.2 66.9,83 81.9,88.9 81.1,90.8 64.7,84.4 	"/>
	<polygon class="st1" points="65.5,73.3 83,67.4 83.7,69.4 66.2,75.3 65.5,73.3 	"/>
	<polygon class="st1" points="65.5,73.3 83,67.4 83.7,69.4 66.2,75.3 65.5,73.3 	"/>
	<polygon class="st1" points="1.8,64.2 2.5,62.2 15.4,67.1 14.7,69.1 1.8,64.2 	"/>
	<polygon class="st1" points="1.8,64.2 2.5,62.2 15.4,67.1 14.7,69.1 1.8,64.2 	"/>
	<g class="st1">
		<path d="M177.5,116.7l-6.3,19.8h-2.6l-5.7-15.7l-5.5,15.7h-2.6l-6.3-19.8h2.8l5,16.1l5.2-16.1h2.7l5.4,16.1l5-16.1H177.5z"/>
		<path d="M197.7,116.7v19.8h-2.5v-9h-10.9v9h-2.5v-19.8h2.5v8.6h10.9v-8.6H197.7z"/>
		<path d="M209.9,116.7h2.1l8.1,19.8h-2.7l-2.3-5.8h-8.3l-2.3,5.8h-2.7L209.9,116.7z M214.5,128.7l-3.6-9.1l-3.7,9.1H214.5z"/>
		<path d="M236.5,118.9h-6.8v17.5h-2.5v-17.5h-6.8v-2.2h16.2V118.9z"/>
		<path d="M240.3,122.5l0.6-3.2h-0.8v-3.2h2.3v3.2l-0.8,3.2H240.3z"/>
		<path d="M258.3,120.8c-0.2-0.3-0.5-0.5-0.9-0.8c-0.4-0.2-0.8-0.5-1.3-0.7c-0.5-0.2-1-0.4-1.5-0.5c-0.5-0.1-1.1-0.2-1.7-0.2
			c-1.5,0-2.7,0.3-3.4,0.9c-0.7,0.6-1.1,1.4-1.1,2.4c0,0.5,0.1,1,0.3,1.3c0.2,0.4,0.5,0.7,1,0.9c0.4,0.3,1,0.5,1.6,0.7
			c0.7,0.2,1.4,0.4,2.3,0.6c1,0.2,1.9,0.5,2.8,0.8c0.8,0.3,1.5,0.6,2.1,1.1c0.6,0.4,1,0.9,1.3,1.6c0.3,0.6,0.5,1.4,0.5,2.3
			c0,0.9-0.2,1.8-0.6,2.5c-0.4,0.7-0.9,1.3-1.5,1.7c-0.6,0.5-1.4,0.8-2.3,1c-0.9,0.2-1.8,0.3-2.8,0.3c-1.5,0-3-0.2-4.3-0.7
			c-1.4-0.5-2.6-1.2-3.7-2.1l1.2-2.1c0.3,0.3,0.7,0.6,1.2,0.9c0.5,0.3,1,0.6,1.6,0.8c0.6,0.3,1.3,0.5,1.9,0.6
			c0.7,0.2,1.4,0.2,2.2,0.2c1.4,0,2.5-0.3,3.3-0.8c0.8-0.5,1.2-1.3,1.2-2.3c0-0.6-0.1-1-0.4-1.4c-0.3-0.4-0.6-0.7-1.1-1
			c-0.5-0.3-1.1-0.5-1.8-0.7c-0.7-0.2-1.5-0.4-2.4-0.7c-1-0.2-1.9-0.5-2.6-0.8c-0.8-0.3-1.4-0.6-1.9-1c-0.5-0.4-0.9-0.9-1.2-1.4
			c-0.3-0.6-0.4-1.2-0.4-2c0-0.9,0.2-1.8,0.5-2.5c0.4-0.7,0.8-1.3,1.5-1.8c0.6-0.5,1.4-0.9,2.3-1.1c0.9-0.3,1.8-0.4,2.8-0.4
			c1.3,0,2.5,0.2,3.6,0.6c1.1,0.4,2,1,2.9,1.6L258.3,120.8z"/>
		<path d="M273.2,116.7l6,10.3l6-10.3h2.7l-7.5,12.6v7.2H278v-7.3l-7.5-12.5H273.2z"/>
		<path d="M298.9,136.6c-1.4,0-2.7-0.3-3.8-0.8c-1.1-0.6-2.1-1.3-2.9-2.3c-0.8-0.9-1.4-2-1.9-3.2c-0.4-1.2-0.7-2.4-0.7-3.7
			c0-1.3,0.2-2.6,0.7-3.8s1.1-2.3,2-3.2c0.8-0.9,1.8-1.7,3-2.2c1.1-0.5,2.4-0.8,3.7-0.8c1.4,0,2.7,0.3,3.8,0.9s2.1,1.4,2.9,2.3
			s1.4,2,1.9,3.2c0.4,1.2,0.7,2.4,0.7,3.7c0,1.3-0.2,2.6-0.7,3.8c-0.5,1.2-1.1,2.3-1.9,3.2c-0.8,0.9-1.8,1.7-3,2.2
			C301.4,136.3,300.2,136.6,298.9,136.6z M292.1,126.6c0,1,0.2,2,0.5,2.9c0.3,0.9,0.8,1.8,1.4,2.5c0.6,0.7,1.3,1.3,2.1,1.7
			c0.8,0.4,1.8,0.6,2.8,0.6c1.1,0,2-0.2,2.8-0.7c0.8-0.5,1.5-1,2.1-1.8c0.6-0.7,1-1.6,1.3-2.5c0.3-0.9,0.5-1.9,0.5-2.8
			c0-1-0.2-2-0.5-2.9c-0.3-0.9-0.8-1.8-1.4-2.5c-0.6-0.7-1.3-1.3-2.1-1.7c-0.8-0.4-1.7-0.6-2.7-0.6c-1.1,0-2,0.2-2.8,0.7
			c-0.8,0.4-1.5,1-2.1,1.8c-0.6,0.7-1,1.6-1.4,2.5C292.2,124.7,292.1,125.6,292.1,126.6z"/>
		<path d="M321.2,134.3c1.2,0,2.1-0.2,2.9-0.7c0.8-0.4,1.4-1,1.8-1.7c0.5-0.7,0.8-1.5,1-2.5c0.2-0.9,0.3-1.9,0.3-2.8v-10h2.5v10
			c0,1.3-0.2,2.6-0.5,3.8c-0.3,1.2-0.8,2.3-1.5,3.2c-0.7,0.9-1.5,1.6-2.6,2.2s-2.4,0.8-3.9,0.8c-1.6,0-2.9-0.3-4-0.8
			c-1.1-0.6-1.9-1.3-2.6-2.2c-0.7-0.9-1.1-2-1.4-3.2c-0.3-1.2-0.4-2.4-0.4-3.7v-10h2.5v10c0,1,0.1,1.9,0.3,2.9
			c0.2,0.9,0.5,1.7,1,2.4c0.5,0.7,1.1,1.3,1.8,1.7C319.1,134.1,320.1,134.3,321.2,134.3z"/>
		<path d="M335.5,136.5v-19.8h8.5c0.9,0,1.7,0.2,2.4,0.5c0.7,0.4,1.4,0.8,1.9,1.4c0.5,0.6,0.9,1.3,1.2,2c0.3,0.8,0.4,1.5,0.4,2.3
			c0,0.7-0.1,1.4-0.3,2c-0.2,0.6-0.5,1.2-0.8,1.7c-0.4,0.5-0.8,1-1.3,1.3c-0.5,0.4-1.1,0.6-1.7,0.8l4.8,7.6h-2.8l-4.5-7.1H338v7.1
			H335.5z M338,127.1h6c0.5,0,1-0.1,1.4-0.3c0.4-0.2,0.8-0.5,1.1-0.9c0.3-0.4,0.5-0.8,0.7-1.3c0.2-0.5,0.3-1,0.3-1.6
			c0-0.6-0.1-1.1-0.3-1.6c-0.2-0.5-0.5-0.9-0.8-1.3c-0.3-0.4-0.7-0.7-1.1-0.9c-0.4-0.2-0.9-0.3-1.4-0.3H338V127.1z"/>
		<path d="M363.6,136.5v-19.8h8.5c0.9,0,1.7,0.2,2.4,0.5c0.7,0.4,1.4,0.8,1.9,1.4c0.5,0.6,0.9,1.3,1.2,2c0.3,0.8,0.4,1.5,0.4,2.3
			c0,0.7-0.1,1.4-0.3,2c-0.2,0.6-0.5,1.2-0.8,1.7c-0.4,0.5-0.8,1-1.3,1.3c-0.5,0.4-1.1,0.6-1.7,0.8l4.8,7.6h-2.8l-4.5-7.1h-5.2v7.1
			H363.6z M366.1,127.1h6c0.5,0,1-0.1,1.4-0.3c0.4-0.2,0.8-0.5,1.1-0.9c0.3-0.4,0.5-0.8,0.7-1.3c0.2-0.5,0.3-1,0.3-1.6
			c0-0.6-0.1-1.1-0.3-1.6c-0.2-0.5-0.5-0.9-0.8-1.3c-0.3-0.4-0.7-0.7-1.1-0.9c-0.4-0.2-0.9-0.3-1.4-0.3h-5.8V127.1z"/>
		<path d="M396.7,134.2v2.2h-13.4v-19.8h13.2v2.2h-10.7v6.4h9.3v2.1h-9.3v6.8H396.7z"/>
		<path d="M415.8,118.9H409v17.5h-2.5v-17.5h-6.8v-2.2h16.2V118.9z"/>
		<path d="M428.2,134.3c1.2,0,2.1-0.2,2.9-0.7c0.8-0.4,1.4-1,1.8-1.7s0.8-1.5,1-2.5c0.2-0.9,0.3-1.9,0.3-2.8v-10h2.5v10
			c0,1.3-0.2,2.6-0.5,3.8c-0.3,1.2-0.8,2.3-1.5,3.2c-0.7,0.9-1.5,1.6-2.6,2.2c-1.1,0.5-2.4,0.8-3.9,0.8c-1.6,0-2.9-0.3-4-0.8
			c-1.1-0.6-1.9-1.3-2.6-2.2c-0.7-0.9-1.1-2-1.4-3.2c-0.3-1.2-0.4-2.4-0.4-3.7v-10h2.5v10c0,1,0.1,1.9,0.3,2.9
			c0.2,0.9,0.5,1.7,1,2.4c0.5,0.7,1.1,1.3,1.8,1.7C426.1,134.1,427,134.3,428.2,134.3z"/>
		<path d="M442.5,136.5v-19.8h8.5c0.9,0,1.7,0.2,2.4,0.5c0.7,0.4,1.4,0.8,1.9,1.4c0.5,0.6,0.9,1.3,1.2,2c0.3,0.8,0.4,1.5,0.4,2.3
			c0,0.7-0.1,1.4-0.3,2c-0.2,0.6-0.5,1.2-0.8,1.7c-0.4,0.5-0.8,1-1.3,1.3c-0.5,0.4-1.1,0.6-1.7,0.8l4.8,7.6h-2.8l-4.5-7.1H445v7.1
			H442.5z M445,127.1h6c0.5,0,1-0.1,1.4-0.3c0.4-0.2,0.8-0.5,1.1-0.9c0.3-0.4,0.5-0.8,0.7-1.3c0.2-0.5,0.3-1,0.3-1.6
			c0-0.6-0.1-1.1-0.3-1.6c-0.2-0.5-0.5-0.9-0.8-1.3c-0.3-0.4-0.7-0.7-1.1-0.9c-0.4-0.2-0.9-0.3-1.4-0.3H445V127.1z"/>
		<path d="M464.7,121.4v15.1h-2.5v-19.8h1.9l12.3,15.4v-15.4h2.5v19.7h-2.1L464.7,121.4z"/>
		<path d="M501.5,136.6c-1.4,0-2.7-0.3-3.8-0.8c-1.1-0.6-2.1-1.3-2.9-2.3c-0.8-0.9-1.4-2-1.9-3.2c-0.4-1.2-0.7-2.4-0.7-3.7
			c0-1.3,0.2-2.6,0.7-3.8c0.5-1.2,1.1-2.3,2-3.2c0.8-0.9,1.8-1.7,3-2.2c1.1-0.5,2.4-0.8,3.7-0.8c1.4,0,2.7,0.3,3.8,0.9
			c1.1,0.6,2.1,1.4,2.9,2.3c0.8,0.9,1.4,2,1.9,3.2c0.4,1.2,0.7,2.4,0.7,3.7c0,1.3-0.2,2.6-0.7,3.8c-0.5,1.2-1.1,2.3-1.9,3.2
			c-0.8,0.9-1.8,1.7-3,2.2C504,136.3,502.8,136.6,501.5,136.6z M494.7,126.6c0,1,0.2,2,0.5,2.9c0.3,0.9,0.8,1.8,1.4,2.5
			s1.3,1.3,2.1,1.7c0.8,0.4,1.8,0.6,2.8,0.6c1.1,0,2-0.2,2.8-0.7c0.8-0.5,1.5-1,2.1-1.8c0.6-0.7,1-1.6,1.3-2.5
			c0.3-0.9,0.5-1.9,0.5-2.8c0-1-0.2-2-0.5-2.9s-0.8-1.8-1.4-2.5c-0.6-0.7-1.3-1.3-2.1-1.7c-0.8-0.4-1.7-0.6-2.7-0.6
			c-1.1,0-2,0.2-2.8,0.7c-0.8,0.4-1.5,1-2.1,1.8c-0.6,0.7-1,1.6-1.4,2.5C494.8,124.7,494.7,125.6,494.7,126.6z"/>
		<path d="M518.2,121.4v15.1h-2.5v-19.8h1.9l12.3,15.4v-15.4h2.5v19.7h-2.1L518.2,121.4z"/>
		<path d="M545.7,126.4c0-1.2,0.2-2.4,0.6-3.6c0.4-1.2,1-2.2,1.8-3.2c0.8-0.9,1.8-1.7,3-2.3c1.2-0.6,2.5-0.9,4-0.9
			c1.8,0,3.3,0.4,4.5,1.2c1.3,0.8,2.2,1.8,2.8,3.1l-2,1.3c-0.3-0.6-0.7-1.2-1.1-1.6c-0.4-0.4-0.9-0.8-1.4-1c-0.5-0.3-1-0.4-1.5-0.6
			c-0.5-0.1-1-0.2-1.5-0.2c-1.1,0-2.1,0.2-2.9,0.7c-0.8,0.5-1.6,1-2.1,1.8c-0.6,0.7-1,1.6-1.3,2.5c-0.3,0.9-0.4,1.8-0.4,2.8
			c0,1,0.2,2,0.5,3c0.3,0.9,0.8,1.8,1.4,2.5c0.6,0.7,1.3,1.3,2.2,1.7c0.8,0.4,1.7,0.6,2.7,0.6c0.5,0,1.1-0.1,1.6-0.2
			c0.5-0.1,1.1-0.3,1.6-0.6c0.5-0.3,1-0.6,1.4-1.1c0.4-0.4,0.8-1,1.1-1.6l2.1,1.1c-0.3,0.7-0.8,1.4-1.3,2c-0.6,0.6-1.2,1-1.9,1.4
			c-0.7,0.4-1.5,0.7-2.3,0.9c-0.8,0.2-1.6,0.3-2.3,0.3c-1.4,0-2.6-0.3-3.7-0.9c-1.1-0.6-2.1-1.4-2.9-2.3c-0.8-1-1.5-2-1.9-3.3
			C545.9,128.9,545.7,127.7,545.7,126.4z"/>
		<path d="M580.8,134.2v2.2h-13.4v-19.8h13.2v2.2h-10.7v6.4h9.3v2.1h-9.3v6.8H580.8z"/>
		<path d="M585.6,136.5v-19.8h8.5c0.9,0,1.7,0.2,2.4,0.5c0.7,0.4,1.4,0.8,1.9,1.4c0.5,0.6,0.9,1.3,1.2,2c0.3,0.8,0.4,1.5,0.4,2.3
			c0,0.7-0.1,1.4-0.3,2c-0.2,0.6-0.5,1.2-0.8,1.7c-0.4,0.5-0.8,1-1.3,1.3c-0.5,0.4-1.1,0.6-1.7,0.8l4.8,7.6h-2.8l-4.5-7.1h-5.2v7.1
			H585.6z M588.1,127.1h6c0.5,0,1-0.1,1.4-0.3c0.4-0.2,0.8-0.5,1.1-0.9c0.3-0.4,0.5-0.8,0.7-1.3c0.2-0.5,0.3-1,0.3-1.6
			c0-0.6-0.1-1.1-0.3-1.6c-0.2-0.5-0.5-0.9-0.8-1.3c-0.3-0.4-0.7-0.7-1.1-0.9c-0.4-0.2-0.9-0.3-1.4-0.3h-5.8V127.1z"/>
		<path d="M619.4,118.9h-6.8v17.5H610v-17.5h-6.8v-2.2h16.2V118.9z"/>
		<path d="M627.7,116.7h2.1l8.1,19.8h-2.7l-2.3-5.8h-8.3l-2.3,5.8h-2.7L627.7,116.7z M632.4,128.7l-3.6-9.1l-3.7,9.1H632.4z"/>
		<path d="M642,136.5v-19.8h2.5v19.8H642z"/>
		<path d="M653.1,121.4v15.1h-2.5v-19.8h1.9l12.3,15.4v-15.4h2.5v19.7h-2.1L653.1,121.4z"/>
		<path d="M687.7,118.9h-6.8v17.5h-2.5v-17.5h-6.8v-2.2h16.2V118.9z"/>
		<path d="M692.7,116.7l6,10.3l6-10.3h2.7l-7.5,12.6v7.2h-2.5v-7.3l-7.5-12.5H692.7z"/>
		<path d="M713.2,130.6c0-1,0.2-1.9,0.5-2.6c0.4-0.8,1-1.4,1.8-1.9c0.3-0.2,0.7-0.5,1.2-0.7c0.4-0.2,0.8-0.5,1.2-0.8
			c0.4-0.3,0.7-0.7,1-1.2c0.3-0.5,0.4-1,0.4-1.6c0-0.5-0.1-1-0.3-1.4c-0.2-0.4-0.5-0.7-0.8-1c-0.3-0.3-0.7-0.5-1.1-0.6
			c-0.4-0.1-0.8-0.2-1.3-0.2c-0.5,0-0.9,0.1-1.3,0.2c-0.4,0.1-0.8,0.3-1.2,0.6s-0.7,0.5-0.9,0.8c-0.3,0.3-0.5,0.7-0.7,1l-1.6-1.1
			c0.2-0.6,0.6-1.1,1-1.5c0.4-0.4,0.9-0.8,1.4-1.1c0.5-0.3,1.1-0.5,1.7-0.7c0.6-0.2,1.2-0.2,1.8-0.2c0.7,0,1.4,0.1,2,0.3
			c0.7,0.2,1.3,0.5,1.8,1c0.5,0.4,0.9,1,1.3,1.7c0.3,0.7,0.5,1.5,0.5,2.4c0,0.7-0.1,1.3-0.3,1.8c-0.2,0.5-0.5,0.9-0.8,1.3
			c-0.3,0.4-0.7,0.7-1.1,1c-0.4,0.3-0.9,0.5-1.3,0.8c-0.3,0.2-0.7,0.4-1,0.6c-0.3,0.2-0.6,0.5-0.9,0.7c-0.3,0.3-0.5,0.6-0.6,1
			c-0.2,0.4-0.2,0.9-0.2,1.5H713.2z M713.3,136.5v-3.2h2.1v3.2H713.3z"/>
	</g>
	<g class="st1">
		<path class="st3" d="M729.8,58.1c-2.2,0-3.6-1.5-3.6-3.7c0-2.2,1.5-3.7,3.6-3.7c2.1,0,3.6,1.5,3.6,3.7
			C733.4,56.6,731.9,58.1,729.8,58.1z M729.8,51c-1.9,0-3.2,1.3-3.2,3.3c0,2,1.3,3.4,3.2,3.4c1.9,0,3.2-1.3,3.2-3.3
			C733,52.4,731.6,51,729.8,51z M730.9,56.4l-1.2-1.8h-0.4v1.7h-0.6v-4.1h1.1c0.9,0,1.4,0.4,1.4,1.2c0,0.6-0.4,1-0.9,1.1l1.2,1.7
			L730.9,56.4z M729.7,52.7h-0.5v1.4h0.5c0.5,0,0.9-0.2,0.9-0.7C730.5,53,730.2,52.7,729.7,52.7z"/>
	</g>
</g>
<g id="Layer_1_copy">
	<g>
		<path d="M658.2,95c-12.6,0-21.9-9.8-21.9-22.1l0,0v-0.1c0-12.1,9.3-22.2,22.1-22.2l0,0c7.8,0,12.6,2.9,17,6.8l0,0l0.8,0.7
			l-3.7,3.7l-0.7-0.7c-3.6-3.4-7.5-5.7-13.5-5.8l0,0c-9.5,0-16.7,7.5-16.7,17.3l0,0v0.1c0,9.9,7.3,17.4,16.8,17.5l0,0
			c5.8,0,9.6-2.1,13.8-6.1l0,0l0.7-0.7l3.6,3.4l-0.8,0.7C671.1,92,666,95,658.2,95L658.2,95C658.3,95,658.2,95,658.2,95L658.2,95
			L658.2,95z M487.6,95c-12.6,0-21.9-9.8-21.9-22.1l0,0v-0.1c0-12.1,9.3-22.2,22.1-22.2l0,0c7.8,0,12.6,2.9,17,6.8l0,0l0.8,0.7
			l-3.7,3.7l-0.7-0.7c-3.6-3.4-7.5-5.7-13.5-5.8l0,0c-9.5,0-16.7,7.5-16.7,17.3l0,0v0.1c0,9.9,7.3,17.4,16.8,17.5l0,0
			c5.8,0,9.6-2.1,13.8-6.1l0,0l0.7-0.7l3.6,3.4l-0.8,0.7C500.5,92,495.4,95,487.6,95L487.6,95C487.7,95,487.7,95,487.6,95L487.6,95
			L487.6,95z M166.8,95c-5.3,0-9.9-1.6-13.1-4.8l0,0c-3.3-3.2-5.1-7.9-5.1-13.9l0,0v-25h5.1V76c0.1,9.3,4.8,14.1,13.2,14.2l0,0
			c8.1-0.1,12.9-4.4,13-14l0,0v-25h5.1v24.6c0,6.1-1.8,10.9-5.1,14.2l0,0C176.7,93.3,172.1,95,166.8,95L166.8,95
			C166.8,95,166.8,95,166.8,95L166.8,95L166.8,95z M441,94.9C441,94.9,441,94.9,441,94.9L441,94.9c-7,0-12.5-2.3-17.6-6.8l0,0
			l-0.8-0.7l3.4-3.8l0.7,0.7c4.5,4.1,8.4,5.8,14.4,5.8l0,0c6,0,9.6-3.2,9.6-7.1l0,0v-0.1c-0.1-3.8-1.6-5.7-11.1-7.8l0,0
			c-10.2-1.9-15.1-5.7-15-12.5l0,0v-0.1c0-6.8,6.4-11.8,14.5-11.8l0,0c6.3,0,10.7,1.7,15,5.2l0,0l0.8,0.6l-3.3,4l-0.8-0.7
			c-3.8-3.2-7.5-4.4-11.9-4.4l0,0c-5.9,0-9.3,3.2-9.3,6.7l0,0v0.1c0.1,3.8,1.5,5.9,11.5,8l0,0c9.8,1.9,14.7,5.7,14.6,12.3l0,0v0.1
			C456,90,449.5,94.9,441,94.9L441,94.9L441,94.9z M689.8,94.3h-1v-43h32v1v3.8H694v14.1h21v1V75L694,75v14.5h27.1v1v3.8H689.8
			L689.8,94.3z M622.7,94.3h-2.8l-28.2-34.6v34.6h-1h-3h-1v-43h1h3.4l27.6,33.9V51.3h5v43H622.7L622.7,94.3z M542.6,94.3h-1v-43h32
			v1v3.8h-26.8v14.1h21v1V75l-21,0v14.5h27.1v1v3.8H542.6L542.6,94.3z M523.7,94.3h-3.1h-1v-43h5.1v43H523.7L523.7,94.3z
			 M385.4,94.3h-2.8l-28.2-34.6v34.6h-1h-3h-1v-43h1h3.4l27.6,33.9V51.3h5v43H385.4L385.4,94.3z M332.7,94.3l-5.4-11.5h-23.6
			l-5.4,11.5h-0.6h-3.2h-1.6L313.5,51h0.6h3.6l20.6,43.3H332.7L332.7,94.3z M325,78.1l-9.5-20.4L306,78.1H325L325,78.1z M250.5,94.3
			h-1v-43h18.4c4.9,0,9,1.4,11.6,3.9l0,0c1.9,1.9,3,4.3,3,7.2l0,0v0.1c0,4.8-2.6,7.8-5.4,9.5l0,0c4.2,1.6,7.8,4.7,7.8,10l0,0v0.1
			c0,7.6-6.8,12.2-16.1,12.2l0,0H250.5L250.5,94.3z M231.4,94.3l-13.4-17h-12.3v17h-1h-3.1h-1v-43h18.7c5.4,0,9.8,1.6,12.5,4.3l0,0
			c2.2,2.1,3.5,5.1,3.5,8.3l0,0v0.1c0,6.9-5,11.1-11.5,12.4l0,0L238,94.3H231.4L231.4,94.3z M268.9,89.5c7-0.1,10.8-3,10.8-7.4l0,0
			V82c0-4.2-3.6-6.9-11.8-7l0,0h-13.3v14.5H268.9L268.9,89.5L268.9,89.5z M218.9,72.5c6.8-0.1,11.3-3.2,11.3-8.4l0,0v-0.1
			c0-4.8-3.7-7.9-11.1-8l0,0h-13.4v16.5H218.9L218.9,72.5L218.9,72.5z M267.5,70.2c6.1-0.1,9.8-2.7,9.8-7.4l0,0v-0.1
			c0-3.8-3-6.5-9.5-6.6l0,0h-13.2v14.1H267.5L267.5,70.2L267.5,70.2z"/>
		<polygon class="st4" points="27,42.1 56.8,53.6 56.8,89.5 27,77.9 27,42.1 		"/>
		<polygon points="1.1,104.8 1.1,44.7 43.9,61.2 43.9,101.8 41.8,101.8 41.8,62.7 3.2,47.8 3.2,103.4 27.4,112.7 26.7,114.7 
			1.1,104.8 		"/>
		<polygon points="1.1,104.8 1.1,44.7 43.9,61.2 43.9,101.8 41.8,101.8 41.8,62.7 3.2,47.8 3.2,103.4 27.4,112.7 26.7,114.7 
			1.1,104.8 		"/>
		<polygon points="48.6,123.3 49.3,121.3 78.6,132.6 78.6,112.4 48.1,100.7 48.1,100.7 48.9,98.7 80.8,110.9 80.8,135.7 48.6,123.3 
					"/>
		<polygon points="48.6,123.3 49.3,121.3 78.6,132.6 78.6,112.4 48.1,100.7 48.1,100.7 48.9,98.7 80.8,110.9 80.8,135.7 48.6,123.3 
					"/>
		<path d="M26,106.3l82.8-27.8L82.3,68.2v-57L16,33.5v52.5l27,10.5l-0.8,2L13.9,87.4V31.9l69-23.2l1.5,0.9v57l28.1,11v24.2L26,131
			V106.3L26,106.3z M28.2,107.8v20.2l82.3-27.7V80.2L28.2,107.8L28.2,107.8z"/>
		<path d="M26,106.3l82.8-27.8L82.3,68.2v-57L16,33.5v52.5l27,10.5l-0.8,2L13.9,87.4V31.9l69-23.2l1.5,0.9v57l28.1,11v24.2L26,131
			V106.3L26,106.3z M28.2,107.8v20.2l82.3-27.7V80.2L28.2,107.8L28.2,107.8z"/>
		<polygon points="64.7,83.4 64.7,1.1 109.5,18.4 109.5,67.1 88.1,74.2 88.1,86.9 86,86.9 86,72.6 107.4,65.6 107.4,19.9 66.9,4.2 
			66.9,82 81.9,87.9 81.1,89.8 64.7,83.4 		"/>
		<polygon points="64.7,83.4 64.7,1.1 109.5,18.4 109.5,67.1 88.1,74.2 88.1,86.9 86,86.9 86,72.6 107.4,65.6 107.4,19.9 66.9,4.2 
			66.9,82 81.9,87.9 81.1,89.8 64.7,83.4 		"/>
		<polygon points="65.5,72.3 83,66.4 83.7,68.4 66.2,74.3 65.5,72.3 		"/>
		<polygon points="65.5,72.3 83,66.4 83.7,68.4 66.2,74.3 65.5,72.3 		"/>
		<polygon points="1.8,63.2 2.5,61.2 15.4,66.1 14.7,68.1 1.8,63.2 		"/>
		<polygon points="1.8,63.2 2.5,61.2 15.4,66.1 14.7,68.1 1.8,63.2 		"/>
		<g>
			<path d="M732.2,62.1c-3.6,0-6-2.6-6-6.2c0-3.6,2.4-6.2,6-6.2c3.6,0,6,2.6,6,6.2C738.2,59.5,735.7,62.1,732.2,62.1z M732.2,50.3
				c-3.1,0-5.3,2.2-5.3,5.6c0,3.4,2.2,5.6,5.3,5.6c3.1,0,5.3-2.2,5.3-5.6C737.5,52.5,735.3,50.3,732.2,50.3z M734,59.2l-2-2.9h-0.7
				v2.8h-1v-6.9h1.8c1.4,0,2.4,0.7,2.4,2c0,1-0.6,1.6-1.4,1.9l2,2.8L734,59.2z M732,53.1h-0.9v2.3h0.9c0.9,0,1.4-0.4,1.4-1.2
				C733.4,53.5,732.9,53.1,732,53.1z"/>
		</g>
	</g>
</g>
</svg>
